<svg width="465" height="480" viewBox="0 0 465 480" fill="none" xmlns="http://www.w3.org/2000/svg">
<path fill-rule="evenodd" clip-rule="evenodd" d="M361.101 127.236L357.976 132.395L378.873 132.276L375.999 126.884" fill="white"/>
<path fill-rule="evenodd" clip-rule="evenodd" d="M364.258 3.03618C357.462 16.8185 353.187 33.5507 351.441 53.2245C349.638 73.5212 350.415 98.1579 353.775 127.135L381.927 126.759C384.434 97.4321 384.559 72.7834 382.297 52.8169C380.109 33.4482 375.485 16.8418 368.436 2.9858C368.036 2.19955 367.222 1.71117 366.341 1.72072C365.455 1.73357 364.65 2.24249 364.258 3.03618Z" fill="#FD650B"/>
<path fill-rule="evenodd" clip-rule="evenodd" d="M355.73 27.072L376.837 26.3327C372.078 9.624 368.527 1.33135 366.182 1.45975C363.837 1.58773 360.353 10.1253 355.73 27.072Z" fill="#883402"/>
<path fill-rule="evenodd" clip-rule="evenodd" d="M375.628 132.525L376.952 146.958L371.6 140.314L367.642 146.712L365.187 140.081L359.162 146.056L360.802 132.608L356.99 132.63L360.522 126.8L361.271 127.256L358.552 131.745L377.941 131.632L375.407 126.884L376.183 126.47L379.398 132.503L375.628 132.525Z" fill="#1A1A1A"/>
<path d="M350.858 53.0517C349.053 73.3799 349.833 98.0443 353.196 127.049C353.221 127.274 353.412 127.442 353.638 127.437L381.786 127.065C382.012 127.061 382.196 126.89 382.219 126.663C384.73 97.3065 384.854 72.6313 382.591 52.6309C380.392 33.2175 375.756 16.5581 368.683 2.65227C368.203 1.72003 367.237 1.13623 366.187 1.15005C365.138 1.16386 364.185 1.76527 363.723 2.70392C356.894 16.5453 352.609 33.3259 350.858 53.0517ZM354.023 126.554C350.704 97.7757 349.944 73.2975 351.734 53.1286C353.473 33.507 357.734 16.8273 364.507 3.09577C364.828 2.44744 365.482 2.03473 366.2 2.02698C366.915 2.01714 367.574 2.41505 367.899 3.05077C374.923 16.8566 379.532 33.4141 381.718 52.7306C383.966 72.575 383.849 97.0661 381.375 126.194L354.023 126.554Z" fill="#1A1A1A"/>
<path fill-rule="evenodd" clip-rule="evenodd" d="M353.292 83.882L354.712 89.0199L353.861 126.799L340.257 141.995L337.857 142.027L353.292 83.882ZM381.725 83.3827L397.689 141.385L395.285 141.378L381.546 126.302L380.354 88.5326L381.725 83.3827Z" fill="white"/>
<path d="M352.81 84.1199C352.925 83.6871 353.539 83.6835 353.661 84.1131L355.08 89.2506L355.093 89.3802L354.246 127.156C354.243 127.261 354.203 127.362 354.133 127.441L340.529 142.636C340.447 142.728 340.329 142.783 340.206 142.784L337.806 142.816C337.514 142.821 337.3 142.546 337.375 142.265L352.81 84.1199ZM338.372 141.932L340.004 141.907L353.369 126.978L354.214 89.425L353.243 85.9114L338.372 141.932ZM354.215 89.36L354.233 89.4855L354.214 89.425L354.215 89.36ZM381.243 83.6207C381.358 83.1879 381.973 83.1843 382.089 83.618L398.053 141.62C398.132 141.899 397.92 142.175 397.63 142.174L395.23 142.163C395.106 142.163 394.989 142.111 394.907 142.02L381.164 126.949C381.094 126.87 381.054 126.771 381.049 126.667L379.858 88.8971L379.872 88.7705L381.243 83.6207ZM380.736 88.9351L381.923 126.476L395.425 141.288L397.055 141.294L381.676 85.4113L380.736 88.9351Z" fill="#1A1A1A"/>
<path d="M373.397 57.3527C376.838 53.9408 376.863 48.381 373.449 44.9387C370.035 41.4965 364.476 41.4748 361.035 44.8868C357.594 48.2987 357.569 53.8585 360.983 57.3007C364.397 60.743 369.956 60.7646 373.397 57.3527Z" fill="white"/>
<path d="M373.643 57.4374C377.258 53.8525 377.282 48.0171 373.698 44.4028C370.113 40.7881 364.278 40.7632 360.663 44.3482C357.048 47.9332 357.024 53.7682 360.608 57.3829C364.193 60.9972 370.028 61.0224 373.643 57.4374ZM373.025 56.8142C369.755 60.0571 364.475 60.035 361.232 56.7648C357.989 53.4946 358.011 48.2145 361.281 44.9715C364.551 41.7285 369.831 41.7506 373.074 45.0209C376.317 48.2911 376.295 53.5712 373.025 56.8142Z" fill="#1A1A1A"/>
<path d="M370.41 54.3406C368.631 56.1042 365.759 56.0922 363.996 54.3137C362.232 52.5353 362.244 49.6635 364.023 47.8999C365.801 46.1362 368.673 46.1482 370.436 47.9267C372.2 49.7052 372.188 52.5769 370.41 54.3406ZM369.792 53.7173C371.225 52.2957 371.236 49.9792 369.813 48.5448C368.391 47.1104 366.074 47.1015 364.641 48.5232C363.207 49.9448 363.197 52.2612 364.619 53.6956C366.041 55.1301 368.358 55.1389 369.792 53.7173ZM355.538 27.3015L355.51 26.4257L376.919 25.7995L376.947 26.6752L355.538 27.3015Z" fill="#1A1A1A"/>
<path fill-rule="evenodd" clip-rule="evenodd" d="M306.953 197.212C307.097 195.156 307.716 175.968 308.811 139.649C309.085 130.558 302.788 122.585 293.882 120.745C293.285 120.622 292.986 120.56 292.986 120.56C282.236 119.808 272.668 127.331 270.863 137.955L261.645 192.19" fill="white"/>
<path d="M293.09 120.977L293.957 121.156C302.654 122.953 308.804 130.739 308.536 139.616C307.442 175.912 306.822 195.116 306.679 197.163C306.662 197.405 306.845 197.614 307.086 197.631C307.328 197.648 307.538 197.466 307.555 197.224C307.7 195.158 308.318 175.988 309.414 139.643C309.694 130.339 303.25 122.179 294.134 120.296L293.238 120.112L293.18 120.103C282.205 119.336 272.436 127.016 270.593 137.863L261.376 192.097C261.335 192.336 261.496 192.563 261.735 192.603C261.974 192.644 262.201 192.483 262.241 192.245L271.458 138.01C273.224 127.618 282.577 120.257 293.09 120.977Z" fill="#1A1A1A"/>
<path fill-rule="evenodd" clip-rule="evenodd" d="M314.1 192.439L318.809 155.828C319.263 152.304 316.773 149.079 313.248 148.626C312.976 148.59 312.702 148.573 312.427 148.573C308.064 148.573 304.195 151.379 302.841 155.526L290.775 192.463L314.1 192.439Z" fill="white"/>
<path d="M314.481 192.609C314.702 192.609 314.888 192.445 314.916 192.226L319.625 155.615C320.109 151.85 317.45 148.406 313.685 147.921C313.394 147.884 313.101 147.865 312.808 147.865C308.255 147.865 304.218 150.793 302.804 155.121L290.738 192.058C290.645 192.342 290.857 192.634 291.156 192.634L314.481 192.609ZM314.095 191.732L291.761 191.755L303.639 155.394C304.934 151.427 308.635 148.743 312.808 148.743C313.064 148.743 313.319 148.759 313.573 148.792C316.857 149.214 319.177 152.219 318.755 155.504L314.095 191.732Z" fill="#1A1A1A"/>
<path fill-rule="evenodd" clip-rule="evenodd" d="M198.022 282.293L242.715 267.724C247.781 266.073 251.477 261.697 252.257 256.427L261.809 191.878H313.6L304.436 273.893C302.822 288.34 295.04 301.383 283.094 309.665L232.257 344.91L198.022 282.293Z" fill="#FD650B"/>
<path fill-rule="evenodd" clip-rule="evenodd" d="M305.405 266.492C295.067 272.15 287.557 278.587 282.875 285.804C278.193 293.022 274.195 303.848 270.878 318.283C273.742 316.194 276.18 314.439 278.193 313.016C286.437 307.191 292.773 301.891 296.627 295.753C301.894 287.365 304.82 277.611 305.405 266.492Z" fill="#883402"/>
<path d="M249.151 262.742C249.155 262.736 249.159 262.731 249.162 262.725C249.174 262.709 249.186 262.695 249.198 262.681C250.609 260.865 251.563 258.689 251.913 256.326L261.457 191.839C261.489 191.623 261.674 191.464 261.891 191.464H313.682C313.944 191.464 314.147 191.691 314.118 191.951L310.138 227.571C310.206 227.655 310.243 227.766 310.232 227.884C310.221 228.007 310.159 228.115 310.07 228.187L304.96 273.916C303.329 288.518 295.451 301.697 283.362 310.048L232.797 344.978C232.635 345.09 232.418 345.08 232.267 344.954C225.309 339.15 219.517 331.789 214.895 322.874C210.284 313.981 205.107 300.207 199.357 281.544C199.286 281.314 199.414 281.069 199.643 280.996L242.589 267.297C245.234 266.453 247.5 264.843 249.151 262.742ZM214.066 277.317L200.324 281.701C206.008 300.107 211.127 313.699 215.674 322.47C220.187 331.174 225.821 338.372 232.574 344.066L245.46 335.164L214.066 277.317ZM214.917 277.046L246.186 334.662L282.863 309.326C294.743 301.119 302.484 288.168 304.088 273.818L309.181 228.23L257.673 223.599C257.663 223.599 257.653 223.598 257.644 223.596L252.781 256.455C252.43 258.828 251.506 261.024 250.142 262.887L280.791 284.862C280.988 285.003 281.033 285.277 280.891 285.474C280.75 285.672 280.476 285.717 280.279 285.575L249.602 263.58C247.867 265.672 245.546 267.274 242.855 268.133L214.917 277.046ZM257.773 222.727L309.279 227.357L313.191 192.342H262.27L257.773 222.727Z" fill="#1A1A1A"/>
<path fill-rule="evenodd" clip-rule="evenodd" d="M117.556 291.362C117.556 291.362 103.901 298.483 76.5916 312.722L88.2127 334.058L123.408 310.357C119.507 297.694 117.556 291.362 117.556 291.362Z" fill="#883402"/>
<path fill-rule="evenodd" clip-rule="evenodd" d="M389.091 388.215L380.606 319.161L384.995 317.112L403.136 290.193L406.355 289.315C407.519 289.037 408.397 289.037 408.988 289.315C409.579 289.594 410.36 290.374 411.329 291.656V373.585C410.685 375.134 410.099 376.207 409.573 376.803C409.047 377.4 408.169 377.985 406.94 378.559L389.091 388.215ZM310.966 449.076L366.561 428.594L369.194 436.202L405.477 445.565L406.94 448.198C406.61 450.133 406.22 451.498 405.769 452.295C405.319 453.091 404.442 453.969 403.136 454.928L327.352 472.777C325.784 472.934 324.516 472.739 323.548 472.192C322.58 471.645 321.605 470.572 320.622 468.973L310.966 449.076Z" fill="white"/>
<path d="M117.144 290.998L76.1794 312.358C75.9617 312.471 75.8792 312.742 75.9968 312.957L87.6178 334.293C87.7419 334.52 88.0339 334.591 88.2487 334.447L123.444 310.746C123.604 310.638 123.675 310.438 123.618 310.253L117.766 291.258C117.685 290.996 117.387 290.871 117.144 290.998ZM122.683 310.2L88.158 333.449L76.9812 312.929L117.082 292.02L122.683 310.2Z" fill="#1A1A1A"/>
<path fill-rule="evenodd" clip-rule="evenodd" d="M243.081 363.929V364.831L202.994 287.267L146.229 311.26C147.287 345.902 152.136 368.92 160.776 380.315C169.417 391.71 184.757 395.319 206.798 391.141H238.692L243.081 363.929Z" fill="#FD650B"/>
<path d="M243.603 363.929V364.832C243.603 365.001 243.52 365.128 243.404 365.201L239.209 391.211C239.174 391.424 238.991 391.58 238.775 391.58H206.923C184.757 395.774 169.263 392.123 160.511 380.58C151.8 369.091 146.935 346 145.874 311.274C145.869 311.093 145.975 310.927 146.143 310.856L202.907 286.863C203.118 286.774 203.363 286.862 203.468 287.066L242.984 363.525C243.243 363.416 243.603 363.563 243.603 363.929ZM243.49 364.663L243.51 364.544L243.444 364.415C243.483 364.491 243.499 364.578 243.49 364.663ZM202.875 287.83L146.761 311.548C147.836 345.936 152.666 368.781 161.21 380.05C169.733 391.29 184.907 394.86 206.8 390.71L206.882 390.702H238.402L242.597 364.69L202.875 287.83Z" fill="#1A1A1A"/>
<path fill-rule="evenodd" clip-rule="evenodd" d="M232.548 344.909L235.474 350.469C226.483 357.561 219.363 362.536 214.114 365.391C208.866 368.247 203.111 370.881 196.851 373.292L193.339 367.147C199.046 364.683 204.508 361.952 209.725 358.954C214.942 355.956 222.55 351.274 232.548 344.909Z" fill="#883402"/>
<path fill-rule="evenodd" clip-rule="evenodd" d="M249.811 463.999L388.505 388.8L380.897 319.453L243.374 387.044" fill="#883402"/>
<path d="M232.302 344.253C222.014 351.187 214.025 356.253 208.338 359.449C202.662 362.64 197.323 365.067 192.321 366.73C192.091 366.807 191.967 367.056 192.043 367.286C192.12 367.516 192.369 367.64 192.599 367.564C197.656 365.881 203.046 363.431 208.768 360.215C214.48 357.004 222.486 351.927 232.792 344.981C232.993 344.845 233.046 344.572 232.911 344.371C232.775 344.17 232.502 344.117 232.302 344.253Z" fill="#1A1A1A"/>
<path d="M235.421 350.119C225.871 357.362 217.528 362.91 210.397 366.761C203.297 370.596 198.456 372.63 195.936 372.855C195.695 372.877 195.517 373.09 195.538 373.332C195.56 373.573 195.773 373.751 196.015 373.729C198.696 373.49 203.608 371.426 210.814 367.534C217.989 363.658 226.368 358.087 235.952 350.819C236.145 350.672 236.183 350.397 236.036 350.204C235.89 350.011 235.615 349.973 235.421 350.119Z" fill="#1A1A1A"/>
<path d="M388.182 388.404C388.167 388.366 388.156 388.326 388.151 388.285L380.546 319.839L243.358 387.439C243.14 387.546 242.878 387.456 242.77 387.238C242.663 387.021 242.752 386.758 242.97 386.651L384.193 317.063L402.258 290.429C402.894 289.492 403.959 288.937 405.092 288.953C405.493 288.958 405.877 289.034 406.232 289.169C406.256 289.129 406.296 289.08 406.354 289.023C406.548 288.827 406.777 288.704 407.038 288.652C407.302 288.6 407.57 288.573 407.838 288.572C410.111 288.569 411.955 290.408 411.959 292.68L412.082 371.276C412.087 374.655 410.403 377.982 407.169 378.799L407.168 378.858C407.166 379.017 407.077 379.162 406.938 379.238L249.81 464.385C249.597 464.501 249.331 464.421 249.215 464.208C249.1 463.995 249.179 463.729 249.392 463.613L388.182 388.404ZM388.999 387.961L406.294 378.589L407.53 292.354C407.55 290.98 406.452 289.851 405.079 289.831C404.242 289.819 403.455 290.229 402.985 290.922L384.854 317.652C384.812 317.714 384.754 317.765 384.685 317.799L381.3 319.467C381.363 319.534 381.405 319.621 381.416 319.719L388.999 387.961ZM407.135 289.682C407.924 290.309 408.424 291.281 408.409 292.366L407.182 377.884C409.875 377.068 411.208 374.172 411.204 371.278L411.081 292.682C411.079 290.894 409.627 289.448 407.839 289.45C407.628 289.451 407.417 289.472 407.21 289.513C407.184 289.578 407.159 289.634 407.135 289.682Z" fill="#1A1A1A"/>
<path fill-rule="evenodd" clip-rule="evenodd" d="M139.209 377.995L143.681 402.281L177.034 461.151C185.81 476.642 204.516 483.492 221.221 477.333L232.911 473.023C244.157 468.877 253.859 461.377 260.704 451.537L290.917 408.112L310.967 449.076L366.561 428.594L327.478 336.162C323.196 326.034 313.267 319.453 302.272 319.453C290.653 319.453 279.508 324.056 271.276 332.254L218.88 384.432" fill="#FD650B"/>
<path fill-rule="evenodd" clip-rule="evenodd" d="M269.124 334.376C278.488 341.593 288.241 346.763 298.385 349.884C308.528 353.005 319.745 352.323 332.034 347.836C329.291 338.748 326.267 332.408 322.963 328.817C319.027 324.538 311.688 320.728 307.455 319.746C301.902 318.457 291.646 319.948 283.462 323.842C279.525 325.716 274.745 329.227 269.124 334.376Z" fill="#883402"/>
<path d="M406.799 447.255L406.957 447.216L406.963 447.243C407.874 451.023 405.549 454.827 401.768 455.738L328.673 473.359C325.375 474.155 321.965 472.635 320.342 469.678C320.203 469.656 320.079 469.568 320.016 469.436L290.847 408.958L261.063 451.767C254.166 461.68 244.391 469.237 233.06 473.414L221.37 477.724C204.464 483.957 185.532 477.024 176.65 461.347L143.297 402.476C143.273 402.434 143.256 402.387 143.247 402.339L138.776 378.053C138.732 377.815 138.889 377.586 139.127 377.542C139.366 377.498 139.595 377.656 139.639 377.894L144.097 402.108L177.414 460.914C186.084 476.217 204.564 482.985 221.067 476.9L232.757 472.59C243.919 468.475 253.549 461.031 260.343 451.266L290.555 407.84C290.747 407.564 291.165 407.597 291.311 407.9L310.948 448.615L365.916 428.364L332.929 350.216C313.409 359.731 291.59 355.167 267.527 336.584L219.188 384.722C219.016 384.893 218.738 384.893 218.567 384.721C218.396 384.549 218.396 384.271 218.568 384.1L270.964 331.922C279.279 323.642 290.535 318.993 302.27 318.993C313.441 318.993 323.526 325.683 327.87 335.975L366.815 428.238C366.884 428.287 366.94 428.357 366.971 428.443C366.998 428.515 367.004 428.589 366.994 428.66L369.887 435.516L404.263 444.195C405.491 444.505 406.442 445.479 406.721 446.715C406.762 446.895 406.788 447.076 406.799 447.255ZM406.271 449.275C405.811 449.993 405.079 450.536 404.182 450.739L321.255 469.504C322.738 471.951 325.649 473.186 328.468 472.506L401.563 454.884C404.258 454.235 406.109 451.905 406.271 449.275ZM311.331 449.409L320.655 468.74L403.988 449.883C405.328 449.58 406.168 448.248 405.865 446.909C405.659 445.995 404.956 445.275 404.048 445.046L369.461 436.314C369.327 436.28 369.217 436.185 369.164 436.059L366.257 429.173L311.331 449.409ZM332.587 349.406L327.061 336.316C322.854 326.349 313.088 319.871 302.27 319.871C290.768 319.871 279.734 324.428 271.583 332.544L268.154 335.959C291.957 354.31 313.416 358.773 332.587 349.406Z" fill="#1A1A1A"/>
<path fill-rule="evenodd" clip-rule="evenodd" d="M167.883 281.414L58.4395 351.307C33.5448 367.206 24.401 399.163 37.1175 425.823L44.9657 442.277C58.8807 471.448 93.8087 483.817 122.98 469.902C124.538 469.159 126.062 468.347 127.548 467.47L177.615 437.896C186.94 432.388 194.552 424.401 199.607 414.823L200.216 413.671C205.454 403.746 205.618 391.911 200.656 381.845L188.365 356.906C170.121 370.509 160.27 379.872 158.812 384.996C157.512 389.565 142.637 398.979 114.184 413.236C108.013 416.328 100.502 414.162 96.9267 408.258C94.0545 403.515 95.5708 397.343 100.313 394.471C100.855 394.143 101.427 393.866 102.021 393.646L155.301 373.877" fill="#FD650B"/>
<path fill-rule="evenodd" clip-rule="evenodd" d="M35.627 423.035C37.09 427.131 43.4425 439.955 45.8681 444.102C48.4196 448.465 51.135 452.588 54.6462 456.684C58.1235 460.741 62.8016 464.751 69.8616 468.388C72.2235 469.605 74.7597 470.873 77.4692 472.192C75.6469 456.813 73.5987 446.085 71.3246 440.006C69.4812 435.077 67.6062 430.137 64.8873 426.253C58.0597 416.5 47.0245 406.641 31.7822 396.677C30.4439 403.325 31.7255 412.111 35.627 423.035Z" fill="#883402"/>
<path fill-rule="evenodd" clip-rule="evenodd" d="M160.861 379.436L161.447 387.044C168.488 400.372 172.817 408.418 174.434 411.183C176.135 414.09 179.511 421.26 184.562 432.69C190.223 427.787 194.71 422.715 198.022 417.475C201.334 412.234 203.383 406.967 204.167 401.674C204.947 394.652 202.996 386.751 198.315 377.973C195.98 373.595 192.566 366.28 188.074 356.028C175.341 362.771 166.465 368.33 161.447 372.706C156.429 377.083 156.234 379.326 160.861 379.436Z" fill="white"/>
<path d="M200.053 381.771C204.953 391.711 204.791 403.397 199.618 413.198L199.01 414.351C193.993 423.856 186.437 431.783 177.183 437.249L126.937 466.929C125.516 467.768 124.06 468.546 122.573 469.262C93.6653 483.166 58.9597 471.004 45.0552 442.096L37.4978 426.383C24.8615 400.112 33.6571 368.545 58.0567 352.593L166.368 281.782C166.571 281.649 166.628 281.377 166.495 281.175C166.362 280.972 166.09 280.915 165.888 281.047L57.5762 351.858C32.808 368.051 23.8795 400.095 36.7066 426.763L44.2646 442.477C58.3786 471.821 93.6091 484.167 122.954 470.053C124.463 469.327 125.941 468.537 127.383 467.685L177.629 438.005C187.024 432.456 194.693 424.409 199.786 414.76L200.395 413.608C205.698 403.558 205.864 391.575 200.841 381.383L188.549 356.444C188.445 356.232 188.192 356.141 187.976 356.237C173.424 362.762 164.494 367.645 161.139 370.93C159.605 372.432 158.754 374.33 158.406 376.632C158.189 378.067 158.174 379.307 158.262 381.524C158.34 383.472 158.334 384.07 158.181 384.607C156.935 388.988 142.041 398.414 113.779 412.576C107.812 415.565 100.55 413.47 97.0928 407.762C94.3892 403.298 95.8165 397.486 100.281 394.782C100.831 394.449 101.413 394.173 102.019 393.958L157.497 374.291C157.725 374.21 157.844 373.959 157.763 373.73C157.683 373.502 157.432 373.383 157.203 373.463L101.726 393.131C101.063 393.366 100.427 393.668 99.8263 394.031C94.9469 396.986 93.3867 403.338 96.342 408.217C100.036 414.317 107.796 416.556 114.172 413.36C142.814 399.008 157.672 389.606 159.025 384.848C159.216 384.177 159.222 383.566 159.139 381.489C159.053 379.325 159.068 378.127 159.274 376.763C159.596 374.637 160.368 372.913 161.753 371.557C164.977 368.401 173.725 363.605 187.95 357.212L200.053 381.771Z" fill="#1A1A1A"/>
<path fill-rule="evenodd" clip-rule="evenodd" d="M203.081 287.208C192.856 264.493 186.711 249.403 184.647 241.937C177.953 217.738 173.282 196.629 148.28 196.629C123.279 196.629 103.011 216.898 103.011 241.9C103.011 249.022 109.155 271.857 121.445 310.406C139.569 310.334 154.232 309.431 165.435 307.699C176.638 305.966 189.186 299.136 203.081 287.208Z" fill="#FD650B" stroke="#1A1A1A" stroke-width="0.877811" stroke-linecap="round" stroke-linejoin="round"/>
<path fill-rule="evenodd" clip-rule="evenodd" d="M202.996 287.139C192.772 264.424 186.627 249.334 184.562 241.868C177.868 217.668 173.197 196.56 148.195 196.56C123.194 196.56 102.926 216.829 102.926 241.831C102.926 248.952 109.07 271.788 121.36 310.337C139.485 310.264 154.148 309.362 165.35 307.629C176.553 305.897 189.101 299.067 202.996 287.139Z" fill="#FD650B"/>
<path fill-rule="evenodd" clip-rule="evenodd" d="M202.996 287.139C192.772 264.424 186.627 249.334 184.562 241.868C177.868 217.668 173.197 196.56 148.195 196.56C123.194 196.56 102.926 216.829 102.926 241.831C102.926 248.952 109.07 271.788 121.36 310.337C139.485 310.264 154.148 309.362 165.35 307.629C176.553 305.897 189.101 299.067 202.996 287.139Z" stroke="#1A1A1A" stroke-width="0.877811" stroke-linecap="round" stroke-linejoin="round"/>
<path d="M203.394 286.958C193.18 264.264 187.04 249.187 184.983 241.75C184.714 240.777 183.521 236.431 183.2 235.272C179.261 221.06 176.536 213.803 172.149 207.705C166.608 200.005 159.029 196.121 148.194 196.121C122.95 196.121 102.485 216.585 102.485 241.831C102.485 249.02 108.63 271.857 120.94 310.47C120.998 310.652 121.168 310.775 121.36 310.775C139.505 310.703 154.189 309.799 165.416 308.063C176.711 306.316 189.329 299.448 203.28 287.471C203.428 287.344 203.474 287.135 203.394 286.958ZM165.282 307.195C154.17 308.914 139.635 309.814 121.678 309.896C109.474 271.596 103.363 248.865 103.363 241.831C103.363 217.07 123.434 196.999 148.194 196.999C158.747 196.999 166.061 200.747 171.436 208.218C175.742 214.203 178.443 221.393 182.354 235.506C182.675 236.664 183.867 241.009 184.137 241.984C186.201 249.446 192.306 264.45 202.459 287.018C188.72 298.766 176.325 305.487 165.282 307.195Z" fill="#1A1A1A"/>
<path d="M127.021 262.663C127.021 262.663 151.465 272.261 188.605 259.209C189.244 258.985 189.944 258.584 190.707 258.006C188.786 254.164 187.616 251.53 187.196 250.105C185.484 244.305 185.325 240.62 183.392 236.938C182.142 234.559 181.705 230.499 180.466 226.697C179.797 224.647 178.529 221.428 176.662 217.041C174.806 213.358 173.538 210.919 172.858 209.726C171.816 207.899 171.816 206.115 170.458 206.313C163.117 207.382 155.202 212.142 146.71 220.596C126.979 240.242 127.021 262.663 127.021 262.663Z" fill="#1A1A1A"/>
<path fill-rule="evenodd" clip-rule="evenodd" d="M142.72 224.942C144.769 222.601 145.902 221.135 147.695 219.383C149.487 217.63 151.791 215.579 155.888 212.653C158.033 218.31 160.179 224.455 162.91 232.842C167.006 245.424 160.52 247.408 152.669 238.987C147.435 233.373 144.313 228.886 142.72 224.942ZM165.93 224.215C167.389 224.317 168.184 230.65 168.63 231.737C168.879 232.343 168.589 233.036 167.983 233.284C167.43 233.511 166.793 233.29 166.5 232.769C164.79 229.734 163.941 227.912 163.953 227.304C163.986 225.765 164.47 224.113 165.93 224.215Z" fill="white"/>
<path d="M157.724 372.707C177.439 372.707 193.421 356.724 193.421 337.009C193.421 317.294 177.439 301.312 157.724 301.312C138.008 301.312 122.026 317.294 122.026 337.009C122.026 356.724 138.008 372.707 157.724 372.707Z" fill="#1A1A1A"/>
<path d="M127.431 259.666C124.345 245.971 128.878 232.953 141.068 220.569C153.262 208.182 161.876 202.181 166.763 202.557C167.005 202.575 166.696 202.654 166.714 202.412C166.733 202.17 166.663 202.138 166.422 202.12C166.282 202.108 166.549 201.665 166.404 201.663C161.107 201.606 152.499 207.705 140.443 219.953C128.054 232.538 123.419 245.853 126.575 259.859C126.628 260.095 126.863 260.243 127.1 260.19C127.336 260.137 127.484 259.902 127.431 259.666Z" fill="#1A1A1A"/>
<path fill-rule="evenodd" clip-rule="evenodd" d="M134.612 364.807L147.779 331.136L180.803 321.564C182.044 321.204 183.343 321.919 183.703 323.161C183.919 323.909 183.751 324.714 183.251 325.312L164.458 347.836L162.911 372.707L134.612 364.807Z" fill="white"/>
<path fill-rule="evenodd" clip-rule="evenodd" d="M147.706 331.157C143.214 336.064 140.358 339.289 139.138 340.834C132.731 348.942 132.967 352.008 136.002 353.98C141.854 357.784 147.916 365.412 152.012 358.39C154.743 353.708 153.307 344.631 147.706 331.157Z" fill="#FD650B"/>
<path d="M147.454 330.84C147.671 330.603 148.06 330.671 148.183 330.967C153.835 344.562 155.287 353.748 152.463 358.59C150.852 361.352 148.801 362.182 146.287 361.382C144.471 360.804 143.096 359.865 139.445 356.995C138.57 356.307 138.058 355.911 137.509 355.502C136.902 355.05 136.355 354.665 135.834 354.327C132.156 351.936 132.827 348.183 138.865 340.541C140.094 338.985 142.954 335.755 147.454 330.84ZM151.705 358.148C154.3 353.699 152.968 344.943 147.636 331.942C143.419 336.555 140.723 339.606 139.554 341.085C133.793 348.377 133.22 351.581 136.313 353.591C136.85 353.94 137.412 354.336 138.033 354.798C138.59 355.213 139.107 355.612 139.987 356.305C143.539 359.097 144.882 360.014 146.553 360.546C148.669 361.22 150.298 360.56 151.705 358.148ZM165.476 346.707C165.614 346.508 165.888 346.459 166.087 346.597C166.286 346.735 166.335 347.009 166.197 347.208C164.497 349.656 162.932 350.908 161.447 350.908C161.205 350.908 161.008 350.711 161.008 350.469C161.008 350.227 161.205 350.03 161.447 350.03C162.563 350.03 163.925 348.941 165.476 346.707Z" fill="#1A1A1A"/>
<path d="M125.456 267.955C127.88 267.955 129.845 265.99 129.845 263.566C129.845 261.142 127.88 259.177 125.456 259.177C123.032 259.177 121.067 261.142 121.067 263.566C121.067 265.99 123.032 267.955 125.456 267.955Z" fill="white"/>
<path d="M125.247 268.394C127.913 268.394 130.075 266.232 130.075 263.566C130.075 260.9 127.913 258.738 125.247 258.738C122.58 258.738 120.419 260.9 120.419 263.566C120.419 266.232 122.58 268.394 125.247 268.394ZM125.247 267.516C123.065 267.516 121.297 265.747 121.297 263.566C121.297 261.384 123.065 259.616 125.247 259.616C127.428 259.616 129.197 261.384 129.197 263.566C129.197 265.747 127.428 267.516 125.247 267.516Z" fill="#1A1A1A"/>
<path d="M125.246 266.052C126.769 266.052 128.026 264.953 128.026 263.565C128.026 262.178 126.769 261.078 125.246 261.078C123.723 261.078 122.467 262.178 122.467 263.565C122.467 264.953 123.723 266.052 125.246 266.052ZM125.246 265.175C124.184 265.175 123.344 264.44 123.344 263.565C123.344 262.69 124.184 261.956 125.246 261.956C126.308 261.956 127.148 262.69 127.148 263.565C127.148 264.44 126.308 265.175 125.246 265.175Z" fill="#1A1A1A"/>
<path fill-rule="evenodd" clip-rule="evenodd" d="M162.908 370.658L161.236 387.044L136.365 401.674L116.677 411.915L107.021 399.041C115.095 398.573 119.679 397.305 120.774 395.237C124.014 389.115 128.598 379.069 134.526 365.099L162.908 370.658Z" fill="white"/>
<path d="M162.994 369.935C163.216 369.979 163.369 370.185 163.346 370.41L161.674 386.796C161.659 386.935 161.579 387.059 161.459 387.13L136.568 401.771L116.881 412.012C116.69 412.111 116.456 412.058 116.327 411.886L106.671 399.011C106.461 398.732 106.647 398.33 106.997 398.31C114.907 397.851 119.397 396.61 120.387 394.739C123.62 388.632 128.199 378.595 134.123 364.635C134.204 364.444 134.408 364.336 134.611 364.375L162.994 369.935ZM134.792 365.305C128.927 379.116 124.385 389.063 121.163 395.15C120.003 397.339 115.593 398.622 107.862 399.135L116.806 411.061L136.143 401.003L160.823 386.486L162.432 370.72L134.792 365.305ZM161.014 386.373L160.8 386.707L160.823 386.486L161.014 386.373Z" fill="#1A1A1A"/>
<path fill-rule="evenodd" clip-rule="evenodd" d="M56.1085 250.985C53.1995 250.985 50.8417 248.627 50.8417 245.718C50.8417 242.809 53.1995 240.451 56.1085 240.451C59.0176 240.451 61.3754 242.809 61.3754 245.718C61.3754 248.627 59.0176 250.985 56.1085 250.985ZM107.607 264.152L108.987 269.419C108.656 269.531 108.328 269.653 108.004 269.784C98.7513 273.529 94.2868 284.065 98.0315 293.318L100.794 300.142L95.5268 303.068L92.4112 292.925C89.0504 281.983 94.3137 270.244 104.719 265.475L107.607 264.152Z" fill="white"/>
<path d="M68.2464 270.36C68.2599 270.27 68.2446 270.178 68.2037 270.098L58.2552 250.493C58.1452 250.277 57.8812 250.191 57.6653 250.3C57.4488 250.41 57.3627 250.674 57.4722 250.891L67.3575 270.37L66.2075 278.132C66.1783 278.33 66.2871 278.524 66.4721 278.601L74.497 281.96L87.6149 306.338C87.7302 306.551 87.9965 306.631 88.2095 306.516C88.4231 306.401 88.5033 306.135 88.388 305.922L75.1963 281.407C75.1489 281.318 75.0722 281.249 74.9792 281.21L67.1257 277.923L68.2464 270.36Z" fill="#1A1A1A"/>
<path d="M55.8971 251.423C52.7457 251.423 50.1913 248.868 50.1913 245.717C50.1913 242.566 52.7457 240.011 55.8971 240.011C59.0478 240.011 61.6028 242.566 61.6028 245.717C61.6028 248.868 59.0478 251.423 55.8971 251.423ZM55.8971 250.545C58.5633 250.545 60.725 248.383 60.725 245.717C60.725 243.051 58.5633 240.889 55.8971 240.889C53.2303 240.889 51.0691 243.051 51.0691 245.717C51.0691 248.383 53.2303 250.545 55.8971 250.545ZM107.212 263.752C107.46 263.638 107.75 263.776 107.819 264.04L109.2 269.307C109.258 269.53 109.134 269.76 108.916 269.833C108.593 269.943 108.273 270.062 107.957 270.19C98.929 273.844 94.5727 284.125 98.2268 293.153L100.989 299.977C101.072 300.182 100.989 300.417 100.795 300.525L95.5284 303.451C95.2843 303.586 94.9777 303.463 94.8957 303.196L91.7801 293.053C88.3543 281.901 93.7189 269.936 104.325 265.076L107.212 263.752ZM104.69 265.873C94.4849 270.551 89.3228 282.064 92.6193 292.794L95.5758 302.421L100.03 299.946L97.4133 293.481C93.5773 284.005 98.1501 273.212 107.627 269.376C107.833 269.293 108.039 269.214 108.248 269.138L107.103 264.768L104.69 265.873Z" fill="#1A1A1A"/>
<path d="M67.0429 423.229C74.7079 433.677 79.5903 450.374 81.7116 473.322L80.8373 473.403C78.6984 450.264 73.7458 433.561 66.0012 423.299C59.671 414.912 52.8739 408.003 45.8748 402.433C40.7385 398.345 35.9322 395.315 31.7216 393.202L32.1155 392.417C36.3781 394.556 41.2359 397.619 46.422 401.746C53.407 407.305 60.1895 414.184 66.5115 422.519L95.9883 406.556C96.2013 406.44 96.4676 406.52 96.5835 406.733C96.6988 406.946 96.6198 407.212 96.4062 407.328L67.0429 423.229ZM108.916 414.93C108.8 414.718 108.878 414.451 109.09 414.335C109.304 414.219 109.57 414.297 109.686 414.51L135.791 462.326C135.908 462.539 135.829 462.805 135.617 462.921C135.404 463.038 135.137 462.959 135.021 462.747L108.916 414.93ZM99.3375 394.752C99.4445 394.969 99.3544 395.232 99.1367 395.339C98.9196 395.446 98.6563 395.356 98.5498 395.139L72.6878 342.47C72.5807 342.252 72.6708 341.99 72.8885 341.883C73.1056 341.775 73.3689 341.866 73.4755 342.083L99.3375 394.752Z" fill="#1A1A1A"/>
<path d="M121.652 310.675L134.61 337.009" stroke="#1A1A1A" stroke-width="0.877811" stroke-linecap="round" stroke-linejoin="round"/>
<path d="M161.384 386.898L184.563 432.487" stroke="#1A1A1A" stroke-width="0.877811" stroke-linecap="round" stroke-linejoin="round"/>
<path fill-rule="evenodd" clip-rule="evenodd" d="M163.3 330.854C160.457 328.816 158.132 328.307 156.323 329.325C153.61 330.854 150.121 333.91 152.059 337.73C153.997 341.551 155.547 344.608 157.486 344.608C159.424 344.608 162.912 344.989 164.85 340.787C166.143 337.985 165.626 334.674 163.3 330.854Z" fill="#FD650B"/>
<path fill-rule="evenodd" clip-rule="evenodd" d="M163.14 332.611C162.939 334.683 162.249 336.018 161.07 336.617C160.038 337.14 158.424 337.445 156.228 337.531C155.259 337.569 154.443 336.814 154.405 335.845C154.392 335.514 154.473 335.185 154.64 334.897C155.847 332.81 156.918 331.531 157.851 331.057C158.83 330.56 160.108 330.444 161.684 330.71C162.593 330.863 163.229 331.693 163.14 332.611Z" fill="white"/>
<path d="M162.412 333.305C162.118 333.768 161.533 334.084 160.86 334.084C159.89 334.084 159.104 333.429 159.104 332.62C159.104 331.832 159.853 331.188 160.791 331.159C159.584 331.029 158.602 331.163 157.84 331.549C157.003 331.973 155.978 333.199 154.81 335.217C154.685 335.433 154.625 335.679 154.634 335.929C154.663 336.655 155.275 337.221 156.002 337.193C158.14 337.108 159.698 336.815 160.662 336.325C161.569 335.865 162.158 334.871 162.412 333.305ZM161.587 331.289C161.733 331.335 161.867 331.407 161.985 331.497C161.865 331.414 161.731 331.343 161.587 331.289ZM163.368 332.753C163.153 334.961 162.394 336.431 161.058 337.108C159.959 337.666 158.29 337.981 156.036 338.069C154.825 338.117 153.805 337.174 153.757 335.963C153.741 335.548 153.843 335.137 154.05 334.778C155.297 332.623 156.414 331.288 157.443 330.766C158.516 330.222 159.886 330.098 161.548 330.377C162.683 330.569 163.478 331.606 163.368 332.753Z" fill="#1A1A1A"/>
<path fill-rule="evenodd" clip-rule="evenodd" d="M181.635 321.361C180.266 321.019 178.822 321.254 177.302 322.067V322.067C177.017 322.219 176.91 322.574 177.062 322.859C177.094 322.919 177.137 322.973 177.187 323.019C177.768 323.539 178.47 323.834 179.295 323.904C180.387 323.998 181.655 323.998 183.098 323.904C183.684 322.599 183.196 321.751 181.635 321.361Z" fill="#FD650B"/>
<path d="M182.035 320.872C180.554 320.502 178.999 320.755 177.388 321.617C176.89 321.884 176.702 322.505 176.969 323.003C177.025 323.109 177.099 323.203 177.188 323.283C177.841 323.868 178.633 324.201 179.551 324.279C180.667 324.374 181.956 324.374 183.42 324.28C183.583 324.269 183.726 324.17 183.792 324.021C184.496 322.452 183.848 321.325 182.035 320.872ZM179.626 323.405C178.895 323.342 178.282 323.085 177.774 322.629C177.761 322.618 177.751 322.605 177.743 322.589C177.704 322.518 177.731 322.43 177.803 322.391C179.231 321.627 180.565 321.41 181.822 321.724C183.026 322.025 183.399 322.53 183.088 323.42C181.779 323.495 180.624 323.49 179.626 323.405Z" fill="#1A1A1A"/>
<path d="M320.916 449.954C323.34 449.954 325.305 447.989 325.305 445.565C325.305 443.141 323.34 441.176 320.916 441.176C318.492 441.176 316.527 443.141 316.527 445.565C316.527 447.989 318.492 449.954 320.916 449.954Z" fill="white"/>
<path d="M320.706 450.393C323.372 450.393 325.534 448.231 325.534 445.565C325.534 442.899 323.372 440.737 320.706 440.737C318.039 440.737 315.878 442.899 315.878 445.565C315.878 448.231 318.039 450.393 320.706 450.393ZM320.706 449.515C318.525 449.515 316.756 447.747 316.756 445.565C316.756 443.383 318.525 441.615 320.706 441.615C322.888 441.615 324.656 443.383 324.656 445.565C324.656 447.747 322.888 449.515 320.706 449.515Z" fill="#1A1A1A"/>
<path d="M387.045 380.314C389.468 380.314 391.434 378.349 391.434 375.925C391.434 373.501 389.468 371.536 387.045 371.536C384.621 371.536 382.655 373.501 382.655 375.925C382.655 378.349 384.621 380.314 387.045 380.314Z" fill="white"/>
<path d="M387.043 380.754C389.709 380.754 391.871 378.592 391.871 375.926C391.871 373.259 389.709 371.098 387.043 371.098C384.377 371.098 382.215 373.259 382.215 375.926C382.215 378.592 384.377 380.754 387.043 380.754ZM387.043 379.876C384.861 379.876 383.093 378.107 383.093 375.926C383.093 373.744 384.861 371.975 387.043 371.975C389.225 371.975 390.993 373.744 390.993 375.926C390.993 378.107 389.225 379.876 387.043 379.876Z" fill="#1A1A1A"/>
<path d="M320.708 448.052C322.23 448.052 323.488 446.952 323.488 445.565C323.488 444.177 322.23 443.077 320.708 443.077C319.185 443.077 317.928 444.177 317.928 445.565C317.928 446.952 319.185 448.052 320.708 448.052ZM320.708 447.174C319.645 447.174 318.806 446.439 318.806 445.565C318.806 444.69 319.645 443.955 320.708 443.955C321.77 443.955 322.61 444.69 322.61 445.565C322.61 446.439 321.77 447.174 320.708 447.174Z" fill="#1A1A1A"/>
<path d="M387.043 378.413C388.566 378.413 389.822 377.313 389.822 375.926C389.822 374.538 388.566 373.438 387.043 373.438C385.519 373.438 384.263 374.538 384.263 375.926C384.263 377.313 385.519 378.413 387.043 378.413ZM387.043 377.535C385.98 377.535 385.141 376.8 385.141 375.926C385.141 375.051 385.98 374.316 387.043 374.316C388.105 374.316 388.945 375.051 388.945 375.926C388.945 376.8 388.105 377.535 387.043 377.535Z" fill="#1A1A1A"/>
<path d="M129.339 263.891C133.936 268.088 143.975 269.957 159.492 269.565C174.978 269.173 185.974 266.816 192.496 262.468C192.697 262.334 192.751 262.062 192.617 261.86C192.483 261.658 192.21 261.604 192.009 261.738C185.655 265.974 174.804 268.299 159.47 268.687C144.166 269.074 134.308 267.238 129.931 263.242C129.752 263.079 129.474 263.091 129.311 263.27C129.147 263.449 129.16 263.727 129.339 263.891Z" fill="#1A1A1A"/>
<path d="M305.172 263.195C293.073 270.812 284.738 278.068 280.168 284.976C275.603 291.879 271.491 303.529 267.817 319.943L268.674 320.134C272.326 303.817 276.407 292.254 280.9 285.461C285.39 278.674 293.636 271.495 305.64 263.938L305.172 263.195Z" fill="#1A1A1A"/>
<path fill-rule="evenodd" clip-rule="evenodd" d="M135.634 362.494C140.351 364.172 144.715 365.447 148.727 366.319C152.652 367.172 157.264 367.909 162.562 368.53C163.686 368.662 164.491 369.68 164.359 370.803C164.348 370.89 164.333 370.976 164.312 371.061L164.255 371.291C163.965 372.455 162.842 373.211 161.654 373.042C156.727 372.341 152.126 371.563 147.849 370.708C143.51 369.84 139.131 368.342 134.711 366.213C133.749 365.75 133.244 364.673 133.503 363.636C133.722 362.761 134.608 362.23 135.483 362.448C135.533 362.461 135.584 362.476 135.634 362.494Z" fill="white"/>
<path d="M152.975 367.966C151.476 367.701 150.056 367.423 148.715 367.131C147.079 366.776 145.377 366.317 143.605 365.755L142.973 368.496C144.744 369.025 146.485 369.46 148.195 369.802C149.553 370.074 150.945 370.338 152.369 370.593L152.975 367.966ZM153.842 368.116L153.234 370.747C156.016 371.237 158.922 371.697 161.951 372.127C162.693 372.233 163.396 371.76 163.577 371.033L163.634 370.803C163.646 370.755 163.655 370.706 163.661 370.656C163.736 370.014 163.277 369.432 162.634 369.357C159.46 368.985 156.529 368.571 153.842 368.116ZM142.767 365.483C140.485 364.727 138.092 363.803 135.588 362.712C135.533 362.688 135.475 362.669 135.418 362.654C134.838 362.51 134.252 362.862 134.107 363.441L134.015 363.811C133.842 364.505 134.196 365.222 134.852 365.507C137.332 366.584 139.759 367.494 142.132 368.237L142.767 365.483ZM135.938 361.907C140.669 363.968 144.99 365.424 148.901 366.273C152.826 367.127 157.438 367.864 162.737 368.485C163.86 368.617 164.664 369.634 164.533 370.759C164.523 370.845 164.507 370.931 164.486 371.015L164.428 371.245C164.138 372.409 163.015 373.165 161.828 372.996C156.902 372.296 152.3 371.518 148.023 370.663C143.701 369.798 139.194 368.348 134.503 366.312C133.453 365.857 132.887 364.709 133.163 363.598L133.256 363.229C133.517 362.179 134.58 361.541 135.63 361.803C135.735 361.829 135.838 361.864 135.938 361.907Z" fill="#1A1A1A"/>
<path fill-rule="evenodd" clip-rule="evenodd" d="M83.6131 314.479L87.7096 312.724L91.806 321.209L87.7096 323.843L83.6131 314.479ZM97.3654 317.698C96.2729 317.698 95.1738 317.518 94.4394 316.82C93.6535 316.074 93.269 314.771 93.269 313.601C93.269 312.665 93.6184 311.365 94.1468 310.675C94.8953 309.698 96.0394 309.505 97.3654 309.505C98.5464 309.505 99.5442 309.583 100.291 310.383C100.976 311.115 101.462 312.52 101.462 313.601C101.462 314.952 101.007 316.367 99.9989 317.113C99.3183 317.617 98.2772 317.698 97.3654 317.698Z" fill="#FD650B"/>
<path d="M83.328 314.249L88.2168 312.154L92.6643 321.367L87.8083 324.49L83.328 314.249ZM88.1998 323.194L91.5361 321.049L87.7907 313.292L84.4867 314.708L88.1998 323.194ZM97.6596 318.136C96.2587 318.136 95.186 317.854 94.4316 317.138C93.5954 316.343 93.1243 314.974 93.1243 313.601C93.1243 312.525 93.5234 311.15 94.0928 310.408C94.8606 309.405 95.9473 309.065 97.6596 309.065C99.29 309.065 100.151 309.275 100.906 310.082C101.657 310.885 102.195 312.388 102.195 313.601C102.195 315.202 101.621 316.675 100.554 317.465C99.8717 317.97 98.9559 318.136 97.6596 318.136ZM97.6596 317.258C98.7791 317.258 99.5457 317.119 100.032 316.759C100.847 316.156 101.317 314.947 101.317 313.601C101.317 312.601 100.856 311.314 100.265 310.682C99.7242 310.103 99.0665 309.943 97.6596 309.943C96.1937 309.943 95.3533 310.206 94.7892 310.941C94.3468 311.519 94.0021 312.706 94.0021 313.601C94.0021 314.752 94.3942 315.892 95.0356 316.501C95.5927 317.029 96.4623 317.258 97.6596 317.258Z" fill="#1A1A1A"/>
<path d="M313.015 191.293H262.102C261.132 191.293 260.346 192.079 260.346 193.049C260.346 194.018 261.132 194.804 262.102 194.804H313.015C313.984 194.804 314.77 194.018 314.77 193.049C314.77 192.079 313.984 191.293 313.015 191.293Z" fill="white"/>
<path d="M262.102 191.293H313.015C313.984 191.293 314.77 192.079 314.77 193.049C314.77 194.018 313.984 194.804 313.015 194.804H262.102C261.132 194.804 260.346 194.018 260.346 193.049C260.346 192.079 261.132 191.293 262.102 191.293ZM262.102 192.171C261.617 192.171 261.224 192.564 261.224 193.049C261.224 193.533 261.617 193.926 262.102 193.926H313.015C313.499 193.926 313.892 193.533 313.892 193.049C313.892 192.564 313.499 192.171 313.015 192.171H262.102Z" fill="#1A1A1A"/>
<path d="M185.587 431.659L162.473 386.295C162.143 385.647 161.35 385.389 160.702 385.719C160.055 386.049 159.796 386.842 160.127 387.491L183.241 432.854C183.571 433.502 184.364 433.76 185.012 433.429C185.66 433.099 185.917 432.306 185.587 431.659Z" fill="white" stroke="#1A1A1A" stroke-width="0.877811"/>
<path fill-rule="evenodd" clip-rule="evenodd" d="M171.463 314.952C169.796 316.365 161.982 310.365 160.311 309.658C159.412 309.278 158.992 308.242 159.372 307.343C159.721 306.52 160.63 306.087 161.489 306.334C166.622 307.817 169.516 308.891 170.17 309.559C171.829 311.251 173.13 313.538 171.463 314.952Z" fill="white"/>
<path fill-rule="evenodd" clip-rule="evenodd" d="M210.794 354.844L228.272 343.772C228.546 343.599 228.907 343.68 229.08 343.954C229.084 343.96 229.088 343.967 229.092 343.974L235.78 355.545C235.936 355.816 235.853 356.161 235.591 356.33L218.424 367.406C218.152 367.581 217.79 367.503 217.615 367.231C217.612 367.226 217.609 367.221 217.606 367.217L210.607 355.641C210.442 355.368 210.525 355.014 210.794 354.844Z" fill="white"/>
<path d="M209.974 355.021L228.337 343.547C228.61 343.376 228.971 343.459 229.143 343.733L236.586 355.644C236.757 355.918 236.673 356.279 236.399 356.45L218.037 367.925C217.763 368.096 217.402 368.012 217.231 367.738L209.788 355.828C209.616 355.553 209.7 355.192 209.974 355.021ZM210.687 355.611L217.82 367.025L235.686 355.861L228.554 344.447L210.687 355.611Z" fill="#1A1A1A"/>
<path d="M214.398 355.2L226.308 347.758C226.583 347.586 226.944 347.67 227.115 347.944L232.077 355.885C232.248 356.158 232.165 356.519 231.891 356.691L219.98 364.134C219.706 364.304 219.345 364.221 219.174 363.947L214.212 356.007C214.04 355.732 214.124 355.371 214.398 355.2ZM219.763 363.234L231.177 356.101L226.526 348.657L215.111 355.79L219.763 363.234Z" fill="#1A1A1A"/>
<path d="M455.324 147.48V140.323C455.324 140.02 455.571 139.773 455.874 139.773C456.177 139.773 456.425 140.02 456.425 140.323V147.48H463.581C463.884 147.48 464.132 147.728 464.132 148.03C464.132 148.333 463.884 148.581 463.581 148.581H456.425V155.738C456.425 156.041 456.177 156.288 455.874 156.288C455.571 156.288 455.324 156.041 455.324 155.738V148.581H448.167C447.864 148.581 447.616 148.333 447.616 148.03C447.616 147.728 447.864 147.48 448.167 147.48H455.324Z" fill="#1A1A1A"/>
<path d="M7.70728 140.62V133.464C7.70728 133.161 7.95501 132.913 8.2578 132.913C8.56058 132.913 8.80832 133.161 8.80832 133.464V140.62H15.9651C16.2679 140.62 16.5156 140.868 16.5156 141.171C16.5156 141.474 16.2679 141.721 15.9651 141.721H8.80832V148.878C8.80832 149.181 8.56058 149.429 8.2578 149.429C7.95501 149.429 7.70728 149.181 7.70728 148.878V141.721H0.55052C0.247734 141.721 0 141.474 0 141.171C0 140.868 0.247734 140.62 0.55052 140.62H7.70728Z" fill="#1A1A1A"/>
<path d="M449.322 419.308V412.151C449.322 411.849 449.569 411.601 449.872 411.601C450.175 411.601 450.423 411.849 450.423 412.151V419.308H457.579C457.882 419.308 458.13 419.556 458.13 419.859C458.13 420.162 457.882 420.409 457.579 420.409H450.423V427.566C450.423 427.869 450.175 428.117 449.872 428.117C449.569 428.117 449.322 427.869 449.322 427.566V420.409H442.165C441.862 420.409 441.614 420.162 441.614 419.859C441.614 419.556 441.862 419.308 442.165 419.308H449.322Z" fill="#1A1A1A"/>
<path d="M22.3477 271.881V266.375C22.3477 266.073 22.5954 265.825 22.8982 265.825C23.201 265.825 23.4487 266.073 23.4487 266.375V271.881H28.9539C29.2567 271.881 29.5044 272.128 29.5044 272.431C29.5044 272.734 29.2567 272.982 28.9539 272.982H23.4487V278.487C23.4487 278.79 23.201 279.037 22.8982 279.037C22.5954 279.037 22.3477 278.79 22.3477 278.487V272.982H16.8425C16.5397 272.982 16.292 272.734 16.292 272.431C16.292 272.128 16.5397 271.881 16.8425 271.881H22.3477Z" fill="#1A1A1A"/>
<path d="M359.072 265.603V260.373C359.072 260.07 359.319 259.823 359.622 259.823C359.925 259.823 360.173 260.07 360.173 260.373V265.603H365.403C365.705 265.603 365.953 265.851 365.953 266.154C365.953 266.456 365.705 266.704 365.403 266.704H360.173V271.934C360.173 272.237 359.925 272.485 359.622 272.485C359.319 272.485 359.072 272.237 359.072 271.934V266.704H353.842C353.539 266.704 353.291 266.456 353.291 266.154C353.291 265.851 353.539 265.603 353.842 265.603H359.072Z" fill="#1A1A1A"/>
<path d="M251.883 101.82V96.5904C251.883 96.2876 252.131 96.0398 252.434 96.0398C252.737 96.0398 252.985 96.2876 252.985 96.5904V101.82H258.214C258.517 101.82 258.765 102.068 258.765 102.371C258.765 102.674 258.517 102.921 258.214 102.921H252.985V108.151C252.985 108.454 252.737 108.702 252.434 108.702C252.131 108.702 251.883 108.454 251.883 108.151V102.921H246.654C246.351 102.921 246.103 102.674 246.103 102.371C246.103 102.068 246.351 101.82 246.654 101.82H251.883Z" fill="#1A1A1A"/>
<path d="M368.303 156.572C368.303 156.344 368.485 156.16 368.714 156.16C368.942 156.161 369.126 156.343 369.126 156.571L369.302 192.97C369.344 201.863 376.591 209.036 385.484 208.994C387.56 208.985 389.61 208.576 391.525 207.786L399.282 204.602C406.802 201.512 415.399 205.106 418.49 212.621C419.875 215.997 419.958 219.766 418.723 223.2L412.719 239.87C409.671 248.331 410.839 257.741 415.865 265.197L423.227 276.127C423.357 276.317 423.304 276.571 423.114 276.701C422.925 276.826 422.67 276.778 422.54 276.588L415.171 265.662C409.995 257.982 408.795 248.3 411.934 239.59L417.938 222.92C419.108 219.68 419.029 216.123 417.718 212.933C414.802 205.838 406.687 202.445 399.592 205.361L391.834 208.545C389.819 209.37 387.66 209.801 385.48 209.815C376.13 209.857 368.515 202.32 368.474 192.969L368.303 156.572Z" fill="#1A1A1A"/>
<path d="M96.5198 167.805V154.758H103.854V151.176H96.5198V131.989H92.9382V151.176H67.0994L88.248 106.406H84.3252L63.1766 151.176V154.758H92.9382V167.805H96.5198Z" fill="#6E6E6E"/>
<path d="M141.35 169.084C151.583 169.084 160.026 160.642 160.026 150.409V123.803C160.026 113.569 151.583 105.127 141.35 105.127C131.117 105.127 122.674 113.569 122.674 123.803V150.409C122.674 160.642 131.117 169.084 141.35 169.084ZM141.35 165.503C133.078 165.503 126.256 158.681 126.256 150.409V123.803C126.256 115.531 133.078 108.709 141.35 108.709C149.622 108.709 156.444 115.531 156.444 123.803V150.409C156.444 158.681 149.622 165.503 141.35 165.503Z" fill="#6E6E6E"/>
<path d="M212.188 167.805V154.758H219.521V151.176H212.188V131.989H208.606V151.176H182.767L203.916 106.406H199.993L178.844 151.176V154.758H208.606V167.805H212.188Z" fill="#6E6E6E"/>
</svg>
