<svg width="24" height="24" viewBox="0 0 24 24" fill="none" xmlns="http://www.w3.org/2000/svg">
<path d="M18.75 17.625V20.25" stroke="#6E6E6E" stroke-width="2" stroke-linecap="round" stroke-linejoin="round"/>
<path d="M5.25 14.625V20.25" stroke="#6E6E6E" stroke-width="2" stroke-linecap="round" stroke-linejoin="round"/>
<path d="M18.75 17.625C19.7855 17.625 20.625 16.7855 20.625 15.75C20.625 14.7145 19.7855 13.875 18.75 13.875C17.7145 13.875 16.875 14.7145 16.875 15.75C16.875 16.7855 17.7145 17.625 18.75 17.625Z" stroke="#6E6E6E" stroke-width="2" stroke-linecap="round" stroke-linejoin="round"/>
<path d="M5.25 14.625C6.28553 14.625 7.125 13.7855 7.125 12.75C7.125 11.7145 6.28553 10.875 5.25 10.875C4.21447 10.875 3.375 11.7145 3.375 12.75C3.375 13.7855 4.21447 14.625 5.25 14.625Z" stroke="#6E6E6E" stroke-width="2" stroke-linecap="round" stroke-linejoin="round"/>
<path d="M12 10.125V20.25" stroke="#6E6E6E" stroke-width="2" stroke-linecap="round" stroke-linejoin="round"/>
<path d="M12 10.125C13.0355 10.125 13.875 9.28553 13.875 8.25C13.875 7.21447 13.0355 6.375 12 6.375C10.9645 6.375 10.125 7.21447 10.125 8.25C10.125 9.28553 10.9645 10.125 12 10.125Z" stroke="#6E6E6E" stroke-width="2" stroke-linecap="round" stroke-linejoin="round"/>
<path d="M18.75 3.75V13.875" stroke="#6E6E6E" stroke-width="2" stroke-linecap="round" stroke-linejoin="round"/>
<path d="M12 3.75V6.375" stroke="#6E6E6E" stroke-width="2" stroke-linecap="round" stroke-linejoin="round"/>
<path d="M5.25 3.75V10.875" stroke="#6E6E6E" stroke-width="2" stroke-linecap="round" stroke-linejoin="round"/>
</svg>
