<svg width="27" height="27" viewBox="0 0 27 27" fill="none" xmlns="http://www.w3.org/2000/svg">
<path d="M4.66027 11.5657C4.42167 11.5657 4.17051 11.4652 3.9947 11.2894C3.73099 11.0131 3.64308 10.6113 3.79378 10.2597L6.12955 4.68395C6.17978 4.57093 6.20489 4.49558 6.24257 4.43279C8.10114 0.150541 10.4746 -0.891766 14.6689 0.715646C14.9075 0.803552 15.0959 0.99192 15.1964 1.23052C15.2968 1.46912 15.2968 1.73284 15.1964 1.97144L11.5169 10.5108C11.3662 10.8624 11.0271 11.0759 10.6504 11.0759H7.07139C6.35559 11.0759 5.67746 11.2141 5.02445 11.4903C4.91143 11.5406 4.78585 11.5657 4.66027 11.5657ZM11.4541 1.88353C9.89692 1.88353 8.94252 2.90072 7.95044 5.21138C7.93789 5.24905 7.91277 5.28673 7.90021 5.3244L6.25513 9.22991C6.5314 9.2048 6.79512 9.19224 7.07139 9.19224H10.0225L13.049 2.15981C12.4587 1.97144 11.9313 1.88353 11.4541 1.88353Z" fill="#FD650B"/>
<path d="M21.0983 11.327C21.0104 11.327 20.9099 11.3145 20.822 11.2894C20.3448 11.1512 19.8425 11.0759 19.315 11.0759H10.6501C10.3361 11.0759 10.0347 10.9126 9.85893 10.6489C9.69568 10.3852 9.65801 10.0461 9.78358 9.75731L13.4254 1.30583C13.6137 0.853746 14.1663 0.539798 14.6309 0.703051C14.7816 0.753283 14.9198 0.816073 15.0705 0.878862L18.0341 2.1221C19.7671 2.8379 20.9225 3.59137 21.6759 4.49554C21.8266 4.67135 21.9522 4.85972 22.0778 5.06065C22.2159 5.27413 22.3415 5.52529 22.4294 5.78901C22.4671 5.87691 22.5299 6.04016 22.5675 6.21597C22.9192 7.40898 22.7433 8.86569 21.9899 10.7494C21.8266 11.101 21.475 11.327 21.0983 11.327ZM12.0817 9.1922H19.3276C19.7295 9.1922 20.1187 9.22987 20.508 9.29266C20.8597 8.20012 20.935 7.35874 20.7341 6.68062C20.709 6.5676 20.6839 6.51736 20.6713 6.46713C20.5959 6.26621 20.5457 6.15318 20.4829 6.05272C20.395 5.91458 20.3322 5.80156 20.2318 5.68854C19.6918 5.03553 18.7374 4.43275 17.3058 3.84253L14.8319 2.81278L12.0817 9.1922Z" fill="#FD650B"/>
<path d="M18.0991 26.9999H8.30392C7.9523 26.9999 7.62579 26.9748 7.29929 26.9371C2.89146 26.6483 0.379877 24.1241 0.0784869 19.6661C0.0408132 19.3898 0.0156974 19.0507 0.0156974 18.7117V16.2629C0.0156974 13.4374 1.69846 10.8881 4.29794 9.75789C5.18956 9.38115 6.11884 9.19278 7.0858 9.19278H19.3423C20.0581 9.19278 20.7488 9.29325 21.3893 9.49417C24.3404 10.3858 26.4124 13.1736 26.4124 16.2629V18.7117C26.4124 18.988 26.3999 19.2517 26.3873 19.5028C26.111 24.413 23.2478 26.9999 18.0991 26.9999ZM7.07324 11.0765C6.35744 11.0765 5.67932 11.2146 5.0263 11.4909C3.1175 12.3197 1.88683 14.1908 1.88683 16.2629V18.7117C1.88683 18.9754 1.91194 19.2391 1.93706 19.4903C2.17566 23.0693 3.93377 24.8274 7.46254 25.066C7.77649 25.1037 8.02765 25.1288 8.29136 25.1288H18.0865C22.2306 25.1288 24.265 23.3079 24.466 19.4149C24.4785 19.1889 24.4911 18.9628 24.4911 18.7117V16.2629C24.4911 13.9899 22.9716 11.9555 20.8116 11.29C20.3344 11.1518 19.8321 11.0765 19.3047 11.0765H7.07324Z" fill="#FD650B"/>
<path d="M0.941843 17.2046C0.426969 17.2046 0 16.7776 0 16.2627V12.5833C0 8.62753 2.80041 5.21177 6.66825 4.4583C7.00731 4.39551 7.35894 4.52109 7.58498 4.7848C7.79846 5.04852 7.86125 5.42526 7.72312 5.73921L5.52548 10.9884C5.42502 11.2145 5.24921 11.3903 5.03572 11.4907C3.12692 12.3196 1.89624 14.1907 1.89624 16.2627C1.88369 16.7776 1.46928 17.2046 0.941843 17.2046ZM5.1613 6.995C3.55389 7.89917 2.386 9.48146 2.02182 11.3275C2.57437 10.7624 3.21483 10.2852 3.94318 9.93355L5.1613 6.995Z" fill="#FD650B"/>
<path d="M25.4555 17.2041C24.9406 17.2041 24.5137 16.7771 24.5137 16.2622C24.5137 13.9892 22.9942 11.9549 20.8342 11.2893C20.583 11.2139 20.3696 11.0381 20.2565 10.7995C20.1435 10.5609 20.131 10.2847 20.2314 10.0461C20.8216 8.57677 20.9723 7.50935 20.7337 6.68053C20.7086 6.56751 20.6835 6.51728 20.6709 6.46705C20.5077 6.10287 20.5956 5.6759 20.8844 5.39962C21.1733 5.12335 21.6128 5.06056 21.9644 5.24893C24.702 6.68053 26.3974 9.4935 26.3974 12.5827V16.2622C26.3974 16.7771 25.9704 17.2041 25.4555 17.2041ZM22.3035 9.84512C23.0946 10.2093 23.7979 10.7242 24.3881 11.3395C24.1495 10.1088 23.5593 8.99119 22.6928 8.11213C22.63 8.63956 22.5044 9.21723 22.3035 9.84512Z" fill="#FD650B"/>
</svg>
