<svg width="22" height="22" viewBox="0 0 22 22" fill="none" xmlns="http://www.w3.org/2000/svg">
<path d="M1.20192 12.9595C2.23219 12.9563 3.25293 13.1568 4.2054 13.5496C5.15786 13.9424 6.02325 14.5196 6.75177 15.2481C7.48028 15.9767 8.05753 16.842 8.45031 17.7945C8.84308 18.747 9.04362 19.7677 9.04039 20.798" stroke="#6E6E6E" stroke-width="2.3" stroke-linecap="round" stroke-linejoin="round"/>
<path d="M1.20192 7.08064C4.83998 7.08064 8.32903 8.52585 10.9015 11.0983C13.474 13.6708 14.9192 17.1599 14.9192 20.7979" stroke="#6E6E6E" stroke-width="2.3" stroke-linecap="round" stroke-linejoin="round"/>
<path d="M1.20192 1.20183C3.77577 1.19699 6.32508 1.70211 8.70263 2.68803C11.0802 3.67394 13.2388 5.12111 15.054 6.94595C16.8788 8.76107 18.326 10.9197 19.3119 13.2973C20.2978 15.6748 20.8029 18.2241 20.7981 20.798" stroke="#6E6E6E" stroke-width="2.3" stroke-linecap="round" stroke-linejoin="round"/>
<path d="M1.69183 21.7778C2.50353 21.7778 3.16154 21.1197 3.16154 20.308C3.16154 19.4963 2.50353 18.8383 1.69183 18.8383C0.880128 18.8383 0.222115 19.4963 0.222115 20.308C0.222115 21.1197 0.880128 21.7778 1.69183 21.7778Z" fill="#6E6E6E"/>
</svg>
