<svg width="32" height="32" viewBox="0 0 32 32" fill="none" xmlns="http://www.w3.org/2000/svg">
<path d="M19.3546 21.4593C18.6378 22.1761 17.1019 22.4319 16.0074 22.4319C14.9097 22.4319 13.377 22.1761 12.6602 21.4593C12.4905 21.2896 12.2186 21.2896 12.0491 21.4593C11.8795 21.629 11.8795 21.9009 12.0491 22.0704C13.1851 23.2064 15.3675 23.296 16.0074 23.296C16.6473 23.296 18.8265 23.2064 19.9659 22.0704C20.1321 21.9007 20.1321 21.6287 19.9659 21.4593C19.7962 21.2896 19.5242 21.2896 19.3546 21.4593Z" fill="#D7D7D7"/>
<path d="M13.9985 17.6667C13.9985 16.7483 13.2498 15.9995 12.3313 15.9995C11.4131 15.9995 10.6641 16.7483 10.6641 17.6667C10.6641 18.585 11.4131 19.334 12.3313 19.334C13.2498 19.334 13.9985 18.5852 13.9985 17.6667Z" fill="#D7D7D7"/>
<path d="M16 0C7.16479 0 0 7.16479 0 16C0 24.8352 7.16479 32 16 32C24.8352 32 32 24.8352 32 16C32 7.16479 24.8352 0 16 0ZM25.2832 18.1343C25.3184 18.3647 25.3376 18.5984 25.3376 18.8352C25.3376 22.4255 21.1584 25.3345 16.0032 25.3345C10.8479 25.3345 6.6687 22.4255 6.6687 18.8352C6.6687 18.5952 6.68799 18.3584 6.72314 18.1279C5.9104 17.7632 5.34399 16.9473 5.34399 16C5.34399 14.7136 6.38721 13.6672 7.67676 13.6672C8.30396 13.6672 8.87036 13.9136 9.28955 14.3169C10.9087 13.1489 13.1489 12.4031 15.6416 12.3391C15.6416 12.3071 16.8064 6.7583 16.8064 6.7583C16.8289 6.64966 16.8928 6.55664 16.9856 6.49609C17.0784 6.4353 17.1904 6.41602 17.2993 6.43848L21.1777 7.26392C21.4497 6.71362 22.0095 6.33276 22.6655 6.33276C23.5872 6.33276 24.3328 7.07837 24.3328 8C24.3328 8.92163 23.5872 9.66724 22.6655 9.66724C21.7727 9.66724 21.0496 8.96313 21.0081 8.08008L17.5359 7.34082L16.4736 12.3425C18.9216 12.4287 21.1201 13.1711 22.7136 14.3232C23.1328 13.917 23.7024 13.6672 24.3328 13.6672C25.6226 13.6672 26.6655 14.7104 26.6655 16C26.6655 16.9536 26.0928 17.7695 25.2832 18.1343Z" fill="#D7D7D7"/>
<path d="M19.6672 15.9995C18.7488 15.9995 18 16.7483 18 17.6667C18 18.585 18.7488 19.334 19.6672 19.334C20.5854 19.334 21.3345 18.585 21.3345 17.6667C21.3345 16.7483 20.5857 15.9995 19.6672 15.9995Z" fill="#D7D7D7"/>
</svg>
