<svg width="27" height="23" viewBox="0 0 27 23" fill="none" xmlns="http://www.w3.org/2000/svg">
<path d="M11.8018 5.85685C11.8018 3.27033 13.9768 1.11881 16.5633 1.15408C17.4692 1.16453 18.3527 1.43638 19.1077 1.93694C19.8627 2.4375 20.4571 3.14547 20.8194 3.97574H24.9696L21.1721 7.77323C20.927 11.5879 19.2384 15.166 16.4495 17.7801C13.6607 20.3942 9.98094 21.8482 6.15845 21.8463C2.39623 21.8463 1.45568 20.4355 1.45568 20.4355C1.45568 20.4355 5.2179 19.0246 7.09901 16.203C7.09901 16.203 -0.425432 12.4407 1.45568 2.09463C1.45568 2.09463 6.15845 6.79741 11.8018 7.73796V5.85685Z" stroke="#6E6E6E" stroke-width="2.3" stroke-linecap="round" stroke-linejoin="round"/>
</svg>
