<svg width="71" height="53" viewBox="0 0 71 53" fill="none" xmlns="http://www.w3.org/2000/svg">
<path d="M63.1002 45.1484C68.0656 40.3016 70.5 32.8932 70.5 23.0288C70.5 16.1032 68.9173 10.5945 65.692 6.56205L65.6921 6.56202L65.6877 6.5567C62.3665 2.51965 57.9712 0.50001 52.5486 0.50001C47.8662 0.50001 43.9762 2.01153 40.9198 5.05125L40.9198 5.05121L40.9145 5.05655C37.8712 8.17499 36.3424 11.9046 36.3424 16.2199C36.3424 20.6903 37.7213 24.503 40.4905 27.6271C43.1951 30.8699 46.9685 32.4738 51.7432 32.4738C54.171 32.4738 56.142 32.0035 57.5924 31.007C57.0019 33.771 55.739 36.1062 53.807 38.0277C51.2415 40.5791 47.5803 41.8874 42.749 41.8874C41.2557 41.8874 39.5337 41.7563 37.5808 41.4914L37.0136 41.4145L37.0136 41.9869L37.0136 51.5995L37.0136 52.0995L37.5136 52.0995C37.8358 52.0995 38.2992 52.14 38.9143 52.2272C39.4596 52.3173 40.0056 52.3637 40.552 52.3664C41.0048 52.454 41.4248 52.5 41.8093 52.5C50.9364 52.5 58.0582 50.0717 63.1002 45.1484ZM63.1002 45.1484L62.751 44.7906L63.1002 45.1484ZM29.8496 6.56205L29.8497 6.56202L29.8453 6.55669C26.5241 2.51964 22.1288 0.500007 16.7062 0.500007C12.0238 0.500006 8.1338 2.01153 5.07734 5.0512L5.07213 5.05654C2.02878 8.17499 0.499996 11.9046 0.499995 16.2199C0.499995 20.6903 1.87891 24.503 4.64807 27.6271C7.35271 30.8699 11.1261 32.4738 15.9008 32.4738C18.3286 32.4738 20.2995 32.0035 21.75 31.007C21.1595 33.771 19.8966 36.1062 17.9645 38.0277C15.3991 40.5791 11.7379 41.8874 6.90662 41.8874C5.41328 41.8874 3.69132 41.7563 1.7384 41.4914L1.1712 41.4145L1.1712 41.9869L1.1712 51.5995L1.1712 52.0995L1.6712 52.0995C1.99337 52.0995 2.45676 52.14 3.07186 52.2272C3.61721 52.3173 4.16318 52.3637 4.70956 52.3664C5.16239 52.454 5.58237 52.5 5.96693 52.5C15.094 52.5 22.2158 50.0717 27.2578 45.1484C32.2232 40.3016 34.6576 32.8932 34.6576 23.0288C34.6576 16.1032 33.0749 10.5945 29.8496 6.56205Z" stroke="#E29168"/>
</svg>
