<svg width="17" height="17" viewBox="0 0 17 17" fill="none" xmlns="http://www.w3.org/2000/svg">
<path d="M16.7734 1.31919L14.229 3.86361L16.0007 5.63532C16.1088 5.74339 16.1823 5.88108 16.2121 6.03097C16.2419 6.18086 16.2266 6.33623 16.1681 6.47742C16.1097 6.61861 16.0106 6.73929 15.8836 6.8242C15.7565 6.90911 15.6071 6.95444 15.4543 6.95445H10.818C10.6131 6.95444 10.4165 6.87303 10.2716 6.72812C10.1267 6.58321 10.0453 6.38668 10.0453 6.18174V1.54547C10.0453 1.39265 10.0906 1.24326 10.1756 1.1162C10.2605 0.98913 10.3811 0.890094 10.5223 0.831608C10.6635 0.773123 10.8189 0.757814 10.9688 0.787618C11.1187 0.817421 11.2564 0.890999 11.3644 0.999048L13.1361 2.77076L15.6806 0.226337C15.7523 0.154579 15.8375 0.0976577 15.9313 0.0588228C16.025 0.0199878 16.1255 0 16.227 0C16.3285 0 16.429 0.0199878 16.5227 0.0588228C16.6165 0.0976577 16.7017 0.154579 16.7734 0.226337C16.8452 0.298094 16.9021 0.383283 16.9409 0.477039C16.9798 0.570795 16.9998 0.671282 16.9998 0.772763C16.9998 0.874243 16.9798 0.97473 16.9409 1.06849C16.9021 1.16224 16.8452 1.24743 16.7734 1.31919ZM6.18174 10.0453H1.54547C1.39265 10.0453 1.24326 10.0906 1.1162 10.1756C0.98913 10.2605 0.890094 10.3811 0.831608 10.5223C0.773123 10.6635 0.757814 10.8189 0.787618 10.9688C0.817421 11.1187 0.890999 11.2564 0.999048 11.3644L2.77076 13.1361L0.226337 15.6806C0.154579 15.7523 0.0976577 15.8375 0.0588228 15.9313C0.0199878 16.025 0 16.1255 0 16.227C0 16.3285 0.0199878 16.429 0.0588228 16.5227C0.0976577 16.6165 0.154579 16.7017 0.226337 16.7734C0.371258 16.9183 0.567813 16.9998 0.772763 16.9998C0.874243 16.9998 0.97473 16.9798 1.06849 16.9409C1.16224 16.9021 1.24743 16.8452 1.31919 16.7734L3.86361 14.229L5.63532 16.0007C5.74339 16.1088 5.88108 16.1823 6.03097 16.2121C6.18086 16.2419 6.33623 16.2266 6.47742 16.1681C6.61861 16.1097 6.73929 16.0106 6.8242 15.8836C6.90911 15.7565 6.95444 15.6071 6.95445 15.4543V10.818C6.95444 10.6131 6.87303 10.4165 6.72812 10.2716C6.58321 10.1267 6.38668 10.0453 6.18174 10.0453Z" fill="#636363"/>
</svg>
