<svg width="15" height="16" viewBox="0 0 15 16" fill="none" xmlns="http://www.w3.org/2000/svg">
<path d="M12.3304 5.19868C13.766 5.19868 14.9297 4.03491 14.9297 2.59934C14.9297 1.16376 13.766 0 12.3304 0C10.8948 0 9.73105 1.16376 9.73105 2.59934C9.73105 4.03491 10.8948 5.19868 12.3304 5.19868Z" fill="#636363"/>
<path d="M2.59934 5.19868C4.03491 5.19868 5.19868 4.03491 5.19868 2.59934C5.19868 1.16376 4.03491 0 2.59934 0C1.16376 0 0 1.16376 0 2.59934C0 4.03491 1.16376 5.19868 2.59934 5.19868Z" fill="#636363"/>
<path d="M12.3304 16C13.766 16 14.9297 14.8362 14.9297 13.4006C14.9297 11.9651 13.766 10.8013 12.3304 10.8013C10.8948 10.8013 9.73105 11.9651 9.73105 13.4006C9.73105 14.8362 10.8948 16 12.3304 16Z" fill="#636363"/>
<path d="M2.59934 16C4.03491 16 5.19868 14.8362 5.19868 13.4006C5.19868 11.9651 4.03491 10.8013 2.59934 10.8013C1.16376 10.8013 0 11.9651 0 13.4006C0 14.8362 1.16376 16 2.59934 16Z" fill="#636363"/>
</svg>
