<svg width="28" height="28" viewBox="0 0 28 28" fill="none" xmlns="http://www.w3.org/2000/svg">
<path d="M10.1818 26.7273H17.8182C24.1818 26.7273 26.7273 24.1818 26.7273 17.8182V10.1818C26.7273 3.81818 24.1818 1.27273 17.8182 1.27273H10.1818C3.81818 1.27273 1.27273 3.81818 1.27273 10.1818V17.8182C1.27273 24.1818 3.81818 26.7273 10.1818 26.7273Z" stroke="#FD650B" stroke-width="2.5" stroke-linecap="round" stroke-linejoin="round"/>
<path d="M18.4545 11.1364C19.5089 11.1364 20.3636 10.2816 20.3636 9.22727C20.3636 8.17291 19.5089 7.31818 18.4545 7.31818C17.4002 7.31818 16.5455 8.17291 16.5455 9.22727C16.5455 10.2816 17.4002 11.1364 18.4545 11.1364Z" stroke="#FD650B" stroke-width="2.5" stroke-miterlimit="10" stroke-linecap="round" stroke-linejoin="round"/>
<path d="M9.54545 11.1364C10.5998 11.1364 11.4545 10.2816 11.4545 9.22727C11.4545 8.17291 10.5998 7.31818 9.54545 7.31818C8.49109 7.31818 7.63636 8.17291 7.63636 9.22727C7.63636 10.2816 8.49109 11.1364 9.54545 11.1364Z" stroke="#FD650B" stroke-width="2.5" stroke-miterlimit="10" stroke-linecap="round" stroke-linejoin="round"/>
<path d="M9.41818 15.6545H18.5818C19.2182 15.6545 19.7273 16.1636 19.7273 16.8C19.7273 19.9691 17.1691 22.5273 14 22.5273C10.8309 22.5273 8.27273 19.9691 8.27273 16.8C8.27273 16.1636 8.78182 15.6545 9.41818 15.6545Z" stroke="#FD650B" stroke-width="2.5" stroke-miterlimit="10" stroke-linecap="round" stroke-linejoin="round"/>
</svg>
