<svg width="19" height="17" viewBox="0 0 19 17" fill="none" xmlns="http://www.w3.org/2000/svg">
<path d="M4.43333 15.5167C4.43333 15.7046 4.37762 15.8882 4.27323 16.0445C4.16884 16.2007 4.02047 16.3225 3.84688 16.3944C3.67329 16.4663 3.48228 16.4851 3.298 16.4484C3.11372 16.4118 2.94444 16.3213 2.81158 16.1884C2.67872 16.0556 2.58824 15.8863 2.55159 15.702C2.51493 15.5177 2.53374 15.3267 2.60565 15.1531C2.67755 14.9795 2.79932 14.8312 2.95554 14.7268C3.11177 14.6224 3.29544 14.5667 3.48333 14.5667C3.73529 14.5667 3.97693 14.6668 4.15509 14.8449C4.33324 15.0231 4.43333 15.2647 4.43333 15.5167ZM5.7 12.35C5.51211 12.35 5.32844 12.4057 5.17221 12.5101C5.01598 12.6145 4.89422 12.7629 4.82231 12.9365C4.75041 13.11 4.7316 13.3011 4.76825 13.4853C4.80491 13.6696 4.89539 13.8389 5.02825 13.9718C5.16111 14.1046 5.33038 14.1951 5.51466 14.2317C5.69895 14.2684 5.88996 14.2496 6.06355 14.1777C6.23714 14.1058 6.38551 13.984 6.4899 13.8278C6.59428 13.6716 6.65 13.4879 6.65 13.3C6.65 13.048 6.54991 12.8064 6.37175 12.6283C6.19359 12.4501 5.95196 12.35 5.7 12.35ZM0.95 12.0333C0.762108 12.0333 0.578435 12.0891 0.422209 12.1934C0.265982 12.2978 0.144218 12.4462 0.0723149 12.6198C0.000411622 12.7934 -0.0184015 12.9844 0.0182544 13.1687C0.0549104 13.353 0.145389 13.5222 0.278249 13.6551C0.411109 13.7879 0.580383 13.8784 0.764665 13.9151C0.948947 13.9517 1.13996 13.9329 1.31355 13.861C1.48714 13.7891 1.63551 13.6674 1.7399 13.5111C1.84428 13.3549 1.9 13.1712 1.9 12.9833C1.9 12.7314 1.79991 12.4897 1.62175 12.3116C1.44359 12.1334 1.20196 12.0333 0.95 12.0333ZM4.11667 10.7667C4.11667 10.5788 4.06095 10.3951 3.95656 10.2389C3.85218 10.0827 3.70381 9.96089 3.53022 9.88899C3.35663 9.81708 3.16561 9.79827 2.98133 9.83492C2.79705 9.87158 2.62778 9.96206 2.49492 10.0949C2.36206 10.2278 2.27158 10.3971 2.23492 10.5813C2.19826 10.7656 2.21708 10.9566 2.28898 11.1302C2.36088 11.3038 2.48265 11.4522 2.63888 11.5566C2.7951 11.661 2.97877 11.7167 3.16667 11.7167C3.41862 11.7167 3.66026 11.6166 3.83842 11.4384C4.01658 11.2603 4.11667 11.0186 4.11667 10.7667ZM18.3667 4.74964e-06H16.0957C15.9292 -0.000452463 15.7644 0.032104 15.6107 0.0957894C15.4569 0.159475 15.3173 0.253024 15.2 0.371021L12.9957 2.57532L3.0098 4.23963C2.78024 4.2779 2.56565 4.37868 2.38961 4.5309C2.21356 4.68312 2.08285 4.8809 2.01182 5.10253C1.9408 5.32416 1.93221 5.56107 1.987 5.78726C2.04178 6.01345 2.15783 6.22018 2.32239 6.38475L10.0819 14.1442C10.2465 14.3088 10.4532 14.4249 10.6794 14.4797C10.9056 14.5345 11.1425 14.5259 11.3641 14.4549C11.5858 14.3839 11.7836 14.2531 11.9358 14.0771C12.088 13.901 12.1888 13.6864 12.227 13.4569L13.8914 3.47101V3.47097L16.0957 1.26667H18.3667C18.5346 1.26667 18.6957 1.19995 18.8145 1.08117C18.9333 0.962399 19 0.801308 19 0.633338C19 0.465368 18.9333 0.304277 18.8145 0.185504C18.6957 0.0667309 18.5346 4.74964e-06 18.3667 4.74964e-06Z" fill="#636363"/>
</svg>
