<svg width="17" height="21" viewBox="0 0 17 21" fill="none" xmlns="http://www.w3.org/2000/svg">
<path d="M15 19.5H10.3631C11.1432 18.8046 11.879 18.0609 12.566 17.2734C15.1396 14.3136 16.5 11.1934 16.5 8.25C16.5 6.06196 15.6308 3.96354 14.0836 2.41637C12.5365 0.869194 10.438 0 8.25 0C6.06196 0 3.96354 0.869194 2.41637 2.41637C0.869194 3.96354 0 6.06196 0 8.25C0 11.1934 1.36038 14.3136 3.93402 17.2734C4.62102 18.0609 5.35676 18.8046 6.1369 19.5H1.5C1.30109 19.5 1.11032 19.579 0.96967 19.7197C0.829018 19.8603 0.75 20.0511 0.75 20.25C0.75 20.4489 0.829018 20.6397 0.96967 20.7803C1.11032 20.921 1.30109 21 1.5 21H15C15.1989 21 15.3897 20.921 15.5303 20.7803C15.671 20.6397 15.75 20.4489 15.75 20.25C15.75 20.0511 15.671 19.8603 15.5303 19.7197C15.3897 19.579 15.1989 19.5 15 19.5ZM8.25002 5.25C8.84337 5.25 9.42339 5.42595 9.91673 5.75559C10.4101 6.08524 10.7946 6.55377 11.0217 7.10195C11.2487 7.65013 11.3081 8.25333 11.1924 8.83527C11.0766 9.41721 10.7909 9.95176 10.3713 10.3713C9.95179 10.7909 9.41724 11.0766 8.83529 11.1924C8.25335 11.3081 7.65015 11.2487 7.10197 11.0216C6.55379 10.7946 6.08526 10.4101 5.75562 9.91671C5.42597 9.42336 5.25002 8.84334 5.25002 8.25C5.25002 7.85603 5.32761 7.46592 5.47838 7.10194C5.62914 6.73797 5.85012 6.40725 6.1287 6.12867C6.40727 5.8501 6.73799 5.62912 7.10197 5.47835C7.46595 5.32759 7.85606 5.25 8.25002 5.25Z" fill="#1A1A1A"/>
</svg>
