<svg width="24" height="24" viewBox="0 0 24 24" fill="none" xmlns="http://www.w3.org/2000/svg">
<path d="M21.9005 1.15653H2.09955C1.5788 1.15653 1.15665 1.57868 1.15665 2.09943V21.9003C1.15665 22.4211 1.5788 22.8432 2.09955 22.8432H21.9005C22.4212 22.8432 22.8434 22.4211 22.8434 21.9003V2.09943C22.8434 1.57868 22.4212 1.15653 21.9005 1.15653Z" stroke="#6E6E6E" stroke-width="2.3" stroke-linecap="round" stroke-linejoin="round"/>
<path d="M11.0571 10.1141V17.6573" stroke="#6E6E6E" stroke-width="2.3" stroke-linecap="round" stroke-linejoin="round"/>
<path d="M7.2855 10.1141V17.6573" stroke="#6E6E6E" stroke-width="2.3" stroke-linecap="round" stroke-linejoin="round"/>
<path d="M11.0571 13.4142C11.0571 12.539 11.4048 11.6996 12.0237 11.0807C12.6426 10.4618 13.482 10.1141 14.3573 10.1141C15.2325 10.1141 16.0719 10.4618 16.6908 11.0807C17.3097 11.6996 17.6574 12.539 17.6574 13.4142V17.6573" stroke="#6E6E6E" stroke-width="2.3" stroke-linecap="round" stroke-linejoin="round"/>
<path d="M7.2855 7.75683C8.06662 7.75683 8.69985 7.1236 8.69985 6.34248C8.69985 5.56135 8.06662 4.92813 7.2855 4.92813C6.50438 4.92813 5.87115 5.56135 5.87115 6.34248C5.87115 7.1236 6.50438 7.75683 7.2855 7.75683Z" fill="#6E6E6E"/>
</svg>
