<svg width="41" height="41" viewBox="0 0 41 41" fill="none" xmlns="http://www.w3.org/2000/svg">
<path d="M36.481 25.4303L20.4975 15.5954L4.51793 25.4313C3.91466 25.8016 3.12554 25.6146 2.75649 25.0112C2.38488 24.4092 2.57303 23.6201 3.1763 23.2499L19.827 13.0015C20.2382 12.7478 20.7582 12.7478 21.1695 13.0014L37.8244 23.2487C38.4278 23.6202 38.615 24.408 38.2449 25.0101C37.871 25.616 37.0793 25.7992 36.481 25.4303Z" fill="#FD650B"/>
<path d="M23.7039 28.1822L17.299 28.1824C16.9454 28.1824 16.6585 28.4694 16.6586 28.8229L16.6606 38.4303L7.69366 38.4306L7.69109 25.7347L20.4993 17.8524L33.3108 25.7352L33.3133 38.4298L24.3465 38.43L24.3445 28.8227C24.3444 28.4691 24.0574 28.1822 23.7039 28.1822ZM35.8681 2.56212L35.8697 10.5426C35.8697 10.9064 35.4304 11.0884 35.1729 10.8309L32.5181 8.17678L28.0356 12.6604C27.5156 13.1817 26.7099 13.2778 26.0796 12.9013L20.5079 9.55935L2.56612 20.6033L2.56536 16.8436L19.658 6.32361C20.1665 6.00975 20.8069 6.00589 21.322 6.31459L26.6553 9.51431L30.2542 5.91463L27.5994 3.26052C27.3406 3.00177 27.5237 2.56239 27.8875 2.56237L35.8681 2.56212Z" fill="#FD650B"/>
</svg>
