<svg width="27" height="21" viewBox="0 0 27 21" fill="none" xmlns="http://www.w3.org/2000/svg">
<path d="M17.1232 10.4999L11.4864 6.74206V14.2577L17.1232 10.4999Z" stroke="#6E6E6E" stroke-width="2.3" stroke-linecap="round" stroke-linejoin="round"/>
<path d="M1.15242 10.4999C1.15242 13.9994 1.51646 16.0427 1.78655 17.0996C1.86103 17.3864 2.00186 17.6516 2.19768 17.874C2.3935 18.0963 2.63884 18.2695 2.9139 18.3796C6.84787 19.8828 13.3653 19.8475 13.3653 19.8475C13.3653 19.8475 19.8828 19.8828 23.8168 18.3796C24.0918 18.2695 24.3372 18.0963 24.533 17.874C24.7288 17.6516 24.8696 17.3864 24.9441 17.0996C25.2142 16.0427 25.5783 13.9994 25.5783 10.4999C25.5783 7.00048 25.2142 4.95716 24.9441 3.90028C24.8696 3.61351 24.7288 3.34826 24.533 3.12592C24.3372 2.90358 24.0918 2.73037 23.8168 2.62027C19.8828 1.11714 13.3653 1.15237 13.3653 1.15237C13.3653 1.15237 6.84787 1.11714 2.9139 2.62027C2.63884 2.73037 2.3935 2.90358 2.19768 3.12592C2.00186 3.34826 1.86103 3.61351 1.78655 3.90028C1.51646 4.95716 1.15242 7.00048 1.15242 10.4999Z" stroke="#6E6E6E" stroke-width="2.3" stroke-linecap="round" stroke-linejoin="round"/>
</svg>
