<svg width="26" height="23" viewBox="0 0 26 23" fill="none" xmlns="http://www.w3.org/2000/svg">
<path d="M11.7315 5.74568C11.7316 4.65773 12.1063 3.60298 12.7926 2.75878C13.4788 1.91457 14.4348 1.33238 15.4998 1.11009C16.5648 0.887794 17.6739 1.03895 18.6405 1.53815C19.6072 2.03736 20.3725 2.85415 20.8078 3.85123L24.99 3.85127L21.1708 7.67048C20.9221 11.5118 19.2208 15.1146 16.4123 17.7472C13.6038 20.3798 9.89873 21.8448 6.04932 21.8449C2.26119 21.8449 1.31415 20.4243 1.31415 20.4243C1.31415 20.4243 5.10229 19.0038 6.99635 16.1627C6.99635 16.1627 -0.579912 12.3746 1.31415 1.95721C1.31415 1.95721 6.04932 6.69237 11.7299 7.6394L11.7315 5.74568Z" stroke="#FD650B" stroke-width="2" stroke-linecap="round" stroke-linejoin="round"/>
</svg>
