<svg width="27" height="21" viewBox="0 0 27 21" fill="none" xmlns="http://www.w3.org/2000/svg">
<path d="M17.2206 10.5L11.5016 6.68735V14.3127L17.2206 10.5Z" stroke="#FD650B" stroke-width="2" stroke-linecap="round" stroke-linejoin="round"/>
<path d="M1.01672 10.5C1.01672 14.0453 1.38299 16.1254 1.66143 17.1944C1.73586 17.4864 1.87879 17.7565 2.07838 17.9822C2.27797 18.2079 2.52848 18.3829 2.80915 18.4925C6.7978 20.0253 13.408 19.9832 13.408 19.9832C13.408 19.9832 20.018 20.0253 24.0067 18.4925C24.2874 18.3829 24.5379 18.2079 24.7375 17.9822C24.9371 17.7565 25.08 17.4864 25.1545 17.1945C25.4329 16.1254 25.7992 14.0453 25.7992 10.5C25.7992 6.95473 25.4329 4.87464 25.1545 3.80556C25.0801 3.51358 24.9371 3.24354 24.7375 3.01781C24.5379 2.79208 24.2874 2.61716 24.0068 2.50753C20.0181 0.974742 13.408 1.01683 13.408 1.01683C13.408 1.01683 6.79788 0.974743 2.80918 2.50752C2.52851 2.61714 2.27801 2.79206 2.07841 3.01779C1.87882 3.24352 1.73589 3.51356 1.66145 3.80554C1.38301 4.87462 1.01672 6.95473 1.01672 10.5Z" stroke="#FD650B" stroke-width="2" stroke-linecap="round" stroke-linejoin="round"/>
</svg>
