<svg width="24" height="24" viewBox="0 0 24 24" fill="none" xmlns="http://www.w3.org/2000/svg">
<path d="M22.0265 1.01857H1.97347C1.44609 1.01857 1.01857 1.44609 1.01857 1.97347V22.0265C1.01857 22.5539 1.44609 22.9814 1.97347 22.9814H22.0265C22.5539 22.9814 22.9814 22.5539 22.9814 22.0265V1.97347C22.9814 1.44609 22.5539 1.01857 22.0265 1.01857Z" stroke="#FD650B" stroke-width="2" stroke-linecap="round" stroke-linejoin="round"/>
<path d="M11.0451 10.0903V17.7295" stroke="#FD650B" stroke-width="2" stroke-linecap="round" stroke-linejoin="round"/>
<path d="M7.22546 10.0903V17.7295" stroke="#FD650B" stroke-width="2" stroke-linecap="round" stroke-linejoin="round"/>
<path d="M11.0451 13.4324C11.0451 12.546 11.3972 11.6959 12.024 11.0692C12.6508 10.4424 13.5009 10.0903 14.3873 10.0903C15.2737 10.0903 16.1238 10.4424 16.7505 11.0692C17.3773 11.6959 17.7294 12.546 17.7294 13.4324V17.7295" stroke="#FD650B" stroke-width="2" stroke-linecap="round" stroke-linejoin="round"/>
<path d="M7.22546 7.70292C8.01654 7.70292 8.65782 7.06163 8.65782 6.27056C8.65782 5.47949 8.01654 4.8382 7.22546 4.8382C6.43439 4.8382 5.7931 5.47949 5.7931 6.27056C5.7931 7.06163 6.43439 7.70292 7.22546 7.70292Z" fill="#FD650B"/>
</svg>
