<svg width="19" height="14" viewBox="0 0 19 14" fill="none" xmlns="http://www.w3.org/2000/svg">
<path d="M15.8333 2.53333H1.26667V0.633333C1.26667 0.465363 1.19994 0.304272 1.08117 0.185499C0.962395 0.0667261 0.801304 0 0.633333 0C0.465363 0 0.304272 0.0667261 0.185499 0.185499C0.066726 0.304272 0 0.465363 0 0.633333V13.3C0 13.468 0.066726 13.6291 0.185499 13.7478C0.304272 13.8666 0.465363 13.9333 0.633333 13.9333C0.801304 13.9333 0.962395 13.8666 1.08117 13.7478C1.19994 13.6291 1.26667 13.468 1.26667 13.3V10.7667H17.7333V13.3C17.7333 13.468 17.8001 13.6291 17.9188 13.7478C18.0376 13.8666 18.1987 13.9333 18.3667 13.9333C18.5346 13.9333 18.6957 13.8666 18.8145 13.7478C18.9333 13.6291 19 13.468 19 13.3V5.7C18.9991 4.86044 18.6651 4.05553 18.0715 3.46187C17.4778 2.86821 16.6729 2.53428 15.8333 2.53333ZM1.26667 3.8H6.96667V9.5H1.26667V3.8Z" fill="#636363"/>
</svg>
