<svg width="27" height="24" viewBox="0 0 27 24" fill="none" xmlns="http://www.w3.org/2000/svg">
<path d="M9.78376 14.1067C9.29559 13.3932 9.02021 12.5295 9.02021 11.6033C9.02021 9.12485 11.023 7.12209 13.5014 7.12209C15.9798 7.12209 17.9825 9.12485 17.9825 11.6033C17.9825 14.0817 15.9798 16.0844 13.5014 16.0844" stroke="#FD650B" stroke-width="2.5" stroke-linecap="round" stroke-linejoin="round"/>
<path d="M20.4594 3.5674C18.344 2.06534 15.9657 1.25172 13.4998 1.25172C9.08123 1.25172 4.96307 3.8553 2.09663 8.36149C0.970083 10.1264 0.970083 13.093 2.09663 14.8579C4.96307 19.3641 9.08123 21.9677 13.4998 21.9677C17.9184 21.9677 22.0365 19.3641 24.903 14.8579C26.0295 13.093 26.0295 10.1264 24.903 8.36149" stroke="#FD650B" stroke-width="2.5" stroke-linecap="round" stroke-linejoin="round"/>
</svg>
