<svg width="19" height="19" viewBox="0 0 19 19" fill="none" xmlns="http://www.w3.org/2000/svg">
<path d="M17.2027 1.02703H1.7973C1.37189 1.02703 1.02703 1.37189 1.02703 1.7973V17.2027C1.02703 17.6281 1.37189 17.973 1.7973 17.973H17.2027C17.6281 17.973 17.973 17.6281 17.973 17.2027V1.7973C17.973 1.37189 17.6281 1.02703 17.2027 1.02703Z" stroke="#1A1A1A" stroke-width="2" stroke-linecap="round" stroke-linejoin="round"/>
<path d="M17.973 12.581L13.9002 8.50819C13.8285 8.43541 13.7431 8.37762 13.6488 8.33817C13.5546 8.29872 13.4535 8.2784 13.3514 8.2784C13.2492 8.2784 13.1481 8.29872 13.0539 8.33817C12.9596 8.37762 12.8742 8.43541 12.8025 8.50819L8.50828 12.8024C8.4366 12.8752 8.35117 12.933 8.25695 12.9725C8.16273 13.0119 8.06161 13.0322 7.95946 13.0322C7.85731 13.0322 7.75619 13.0119 7.66197 12.9725C7.56775 12.933 7.48232 12.8752 7.41064 12.8024L5.4272 10.819C5.35552 10.7462 5.27009 10.6884 5.17587 10.649C5.08165 10.6095 4.98052 10.5892 4.87838 10.5892C4.77623 10.5892 4.67511 10.6095 4.58089 10.649C4.48667 10.6884 4.40123 10.7462 4.32956 10.819L1.02703 14.1215" stroke="#1A1A1A" stroke-width="2" stroke-linecap="round" stroke-linejoin="round"/>
<path d="M6.80405 7.18919C7.44217 7.18919 7.95946 6.6719 7.95946 6.03378C7.95946 5.39567 7.44217 4.87838 6.80405 4.87838C6.16594 4.87838 5.64865 5.39567 5.64865 6.03378C5.64865 6.6719 6.16594 7.18919 6.80405 7.18919Z" fill="#1A1A1A"/>
</svg>
