<svg width="24" height="24" viewBox="0 0 24 24" fill="none" xmlns="http://www.w3.org/2000/svg">
<path d="M12 16.7745C14.6369 16.7745 16.7745 14.6369 16.7745 12C16.7745 9.3631 14.6369 7.22546 12 7.22546C9.3631 7.22546 7.22546 9.3631 7.22546 12C7.22546 14.6369 9.3631 16.7745 12 16.7745Z" stroke="#FD650B" stroke-width="2" stroke-miterlimit="10"/>
<path d="M17.252 1.01857H6.74801C3.58373 1.01857 1.01857 3.58373 1.01857 6.74801V17.252C1.01857 20.4163 3.58373 22.9814 6.74801 22.9814H17.252C20.4163 22.9814 22.9814 20.4163 22.9814 17.252V6.74801C22.9814 3.58373 20.4163 1.01857 17.252 1.01857Z" stroke="#FD650B" stroke-width="2" stroke-linecap="round" stroke-linejoin="round"/>
<path d="M18.2069 7.22546C18.998 7.22546 19.6393 6.58417 19.6393 5.7931C19.6393 5.00203 18.998 4.36074 18.2069 4.36074C17.4158 4.36074 16.7745 5.00203 16.7745 5.7931C16.7745 6.58417 17.4158 7.22546 18.2069 7.22546Z" fill="#FD650B"/>
</svg>
