<svg width="32" height="32" viewBox="0 0 32 32" fill="none" xmlns="http://www.w3.org/2000/svg">
<path d="M15.9974 2.6665C13.3603 2.6665 10.7825 3.44849 8.5898 4.91358C6.39714 6.37866 4.68818 8.46104 3.67901 10.8974C2.66984 13.3337 2.4058 16.0146 2.92026 18.601C3.43473 21.1875 4.70461 23.5632 6.56931 25.4279C8.43401 27.2926 10.8098 28.5625 13.3962 29.077C15.9826 29.5914 18.6635 29.3274 21.0998 28.3182C23.5362 27.3091 25.6186 25.6001 27.0837 23.4074C28.5487 21.2148 29.3307 18.6369 29.3307 15.9998C29.3307 14.2489 28.9859 12.5151 28.3158 10.8974C27.6457 9.27972 26.6636 7.80986 25.4255 6.57175C24.1874 5.33363 22.7175 4.35151 21.0998 3.68144C19.4822 3.01138 17.7484 2.6665 15.9974 2.6665ZM15.9974 26.6665C13.8877 26.6665 11.8254 26.0409 10.0713 24.8688C8.31719 23.6968 6.95002 22.0309 6.14269 20.0818C5.33535 18.1327 5.12412 15.988 5.53569 13.9189C5.94727 11.8497 6.96317 9.94913 8.45493 8.45737C9.94669 6.96561 11.8473 5.9497 13.9164 5.53813C15.9856 5.12655 18.1303 5.33779 20.0794 6.14512C22.0284 6.95246 23.6943 8.31963 24.8664 10.0738C26.0385 11.8279 26.6641 13.8902 26.6641 15.9998C26.6641 18.8288 25.5403 21.5419 23.5399 23.5423C21.5395 25.5427 18.8264 26.6665 15.9974 26.6665Z" fill="#FD650B"/>
<path d="M15.9974 14.6667C13.3307 14.6667 13.3307 13.8267 13.3307 13.3333C13.3307 12.84 14.2641 12 15.9974 12C17.7307 12 17.8507 12.8533 17.8641 13.3333H20.5307C20.5127 12.425 20.186 11.5499 19.6044 10.8519C19.0228 10.154 18.2209 9.67486 17.3307 9.49333V8H14.6641V9.45333C11.9974 9.89333 10.6641 11.6133 10.6641 13.3333C10.6641 14.8267 11.3574 17.3333 15.9974 17.3333C18.6641 17.3333 18.6641 18.24 18.6641 18.6667C18.6641 19.0933 17.8374 20 15.9974 20C13.5441 20 13.3307 18.8533 13.3307 18.6667H10.6641C10.6641 19.8933 11.5441 22.0667 14.6641 22.56V24H17.3307V22.56C19.9974 22.1067 21.3307 20.3867 21.3307 18.6667C21.3307 17.1733 20.6374 14.6667 15.9974 14.6667Z" fill="#FD650B"/>
</svg>
