<svg width="27" height="27" viewBox="0 0 27 27" fill="none" xmlns="http://www.w3.org/2000/svg">
<path d="M17.0915 25.1915C15.9271 25.5454 14.717 25.7256 13.5 25.7264C11.0818 25.7264 8.718 25.0094 6.70737 23.6659C4.69675 22.3224 3.12966 20.4129 2.20427 18.1789C1.27888 15.9448 1.03676 13.4864 1.50852 11.1148C1.98028 8.74306 3.14473 6.56452 4.85462 4.85462C6.56452 3.14473 8.74306 1.98028 11.1148 1.50852C13.4864 1.03676 15.9448 1.27888 18.1789 2.20427C20.4129 3.12966 22.3224 4.69675 23.6659 6.70737C25.0094 8.718 25.7264 11.0818 25.7264 13.5C25.7256 14.717 25.5454 15.9271 25.1915 17.0915L17.0915 25.1915Z" stroke="#FD650B" stroke-width="2.5" stroke-linecap="round" stroke-linejoin="round"/>
<path d="M18.7949 16.5566C18.2563 17.4845 17.4834 18.2547 16.5536 18.7901C15.6238 19.3255 14.5697 19.6073 13.4968 19.6073C12.4239 19.6073 11.3698 19.3255 10.44 18.7901C9.51019 18.2547 8.73731 17.4845 8.1987 16.5566" stroke="#FD650B" stroke-width="2.5" stroke-linecap="round" stroke-linejoin="round"/>
<path d="M18.0849 12.4811C18.929 12.4811 19.6132 11.7969 19.6132 10.9528C19.6132 10.1088 18.929 9.42453 18.0849 9.42453C17.2408 9.42453 16.5566 10.1088 16.5566 10.9528C16.5566 11.7969 17.2408 12.4811 18.0849 12.4811Z" fill="#FD650B"/>
<path d="M8.91509 12.4811C9.75915 12.4811 10.4434 11.7969 10.4434 10.9528C10.4434 10.1088 9.75915 9.42453 8.91509 9.42453C8.07104 9.42453 7.38679 10.1088 7.38679 10.9528C7.38679 11.7969 8.07104 12.4811 8.91509 12.4811Z" fill="#FD650B"/>
</svg>
