<svg width="24" height="24" viewBox="0 0 24 24" fill="none" xmlns="http://www.w3.org/2000/svg">
<path d="M12 21C16.9706 21 21 16.9706 21 12C21 7.02944 16.9706 3 12 3C7.02944 3 3 7.02944 3 12C3 16.9706 7.02944 21 12 21Z" stroke="#6E6E6E" stroke-width="2" stroke-linecap="round" stroke-linejoin="round"/>
<path d="M13.2563 12.4313C13.7685 12.1522 14.1731 11.7103 14.4063 11.1755C14.6394 10.6408 14.6878 10.0436 14.5437 9.47827C14.3997 8.91296 14.0714 8.41174 13.6108 8.05377C13.1501 7.69579 12.5834 7.50146 12 7.50146C11.4166 7.50146 10.8499 7.69579 10.3892 8.05377C9.92861 8.41174 9.60035 8.91296 9.45629 9.47827C9.31224 10.0436 9.3606 10.6408 9.59374 11.1755C9.82688 11.7103 10.2315 12.1522 10.7438 12.4313L9.45 15.4501C9.40029 15.564 9.37966 15.6885 9.38997 15.8123C9.40028 15.9362 9.4412 16.0555 9.50907 16.1596C9.57693 16.2637 9.6696 16.3494 9.77874 16.4088C9.88789 16.4682 10.0101 16.4996 10.1344 16.5001H13.8656C13.9899 16.4996 14.1121 16.4682 14.2213 16.4088C14.3304 16.3494 14.4231 16.2637 14.4909 16.1596C14.5588 16.0555 14.5997 15.9362 14.61 15.8123C14.6203 15.6885 14.5997 15.564 14.55 15.4501L13.2563 12.4313Z" stroke="#6E6E6E" stroke-width="1.3" stroke-linecap="round" stroke-linejoin="round"/>
</svg>
